<svg width="28" height="30" viewBox="0 0 28 30" fill="none" xmlns="http://www.w3.org/2000/svg">
<path fill-rule="evenodd" clip-rule="evenodd" d="M26.8375 15.85L26.525 15.1C26.4678 14.9724 26.3716 14.8662 26.2504 14.7966C26.1292 14.727 25.989 14.6976 25.85 14.7125C25.45 14.775 25.0375 14.925 24.6 14.9625C24.5032 14.9649 24.4075 14.9405 24.3237 14.892C24.2399 14.8434 24.1711 14.7727 24.125 14.6875C24.0767 14.6038 24.0513 14.509 24.0513 14.4125C24.0513 14.3159 24.0767 14.2211 24.125 14.1375C24.2898 13.8324 24.5054 13.5576 24.7625 13.325C24.8625 13.225 25.15 12.9875 25.3125 12.8C25.4602 12.6432 25.5486 12.4399 25.5625 12.225C25.5748 12.0722 25.5534 11.9186 25.5 11.775C25.5 11.6125 25.2875 11.3875 25.2625 11.2875L24.525 9.77496C24.4019 9.53344 24.2641 9.29967 24.1125 9.07496C23.9898 8.91062 23.8125 8.7954 23.6125 8.74996C23.4519 8.71473 23.2856 8.71473 23.125 8.74996C22.975 8.74996 22.75 8.93746 22.6625 8.97496L21.5 9.52496C21.3875 9.39996 21.275 9.29996 21.25 9.27496C20.9752 8.98215 20.6314 8.76296 20.25 8.63746C19.879 8.51856 19.487 8.48021 19.1 8.52496C18.4365 8.59731 17.827 8.92447 17.4 9.43746C17.1873 9.68508 17.0277 9.97367 16.9309 10.2854C16.8342 10.5972 16.8024 10.9254 16.8375 11.25C16.8657 11.4291 16.9117 11.605 16.975 11.775C17.003 11.8563 17.0364 11.9356 17.075 12.0125L16.6 12.2125L15.85 12.575C15.2 13.1375 15.475 13.7375 16.175 13.4625L16.9625 13.15C17.1875 13.075 17.4875 13.025 17.75 12.9375C17.9038 12.8843 18.0507 12.813 18.1875 12.725C18.2931 12.6322 18.365 12.5071 18.3921 12.3692C18.4192 12.2313 18.4 12.0883 18.3375 11.9625C18.3375 11.8875 18.2 11.7 18.2 11.6875L18.05 11.1375C18.0477 10.8234 18.1637 10.5199 18.375 10.2875C18.6097 10.0926 18.9076 9.99039 19.2125 9.99996C19.3927 9.99505 19.5718 10.0292 19.7375 10.1C19.8829 10.16 20.0115 10.2544 20.1125 10.375C20.1125 10.375 20.375 10.825 20.475 10.975C20.5518 11.1035 20.6595 11.2108 20.7883 11.2872C20.9171 11.3636 21.0629 11.4066 21.2125 11.4125C21.3635 11.3868 21.5079 11.3316 21.6375 11.25L22.0375 11.0125L23.15 10.575L23.8375 11.925L23.9 12.1125L23.6875 12.2625C23.2368 12.7362 22.9141 13.317 22.75 13.95C22.6922 14.2179 22.6959 14.4955 22.7608 14.7618C22.8258 15.0281 22.9503 15.2762 23.125 15.4875C23.2744 15.7049 23.4714 15.8854 23.701 16.0153C23.9306 16.1453 24.1867 16.2212 24.45 16.2375C24.8466 16.2209 25.2384 16.1451 25.6125 16.0125C25.7125 16.1625 25.85 16.3125 25.85 16.325C26.1 16.8125 26.3875 17.3 26.6375 17.7875C26.7 17.925 26.75 18.075 26.8125 18.2125C26.575 18.325 26.35 18.45 26.1 18.55C25.5875 18.7625 25.05 18.8875 24.525 19.0625C24 19.2375 23.45 19.4875 22.9375 19.7L21.0375 20.8625L19.7875 21.475C19.6516 21.5363 19.5456 21.6491 19.4928 21.7886C19.4401 21.9281 19.4449 22.0828 19.5063 22.2187C19.5676 22.3546 19.6804 22.4606 19.8199 22.5134C19.9594 22.5661 20.1141 22.5613 20.25 22.5C21.3783 22.1622 22.4811 21.7445 23.55 21.25C23.9125 21.1 24.2875 20.9625 24.65 20.7875C25.0125 20.6125 25.4 20.4125 25.75 20.2125C26.1213 19.9726 26.4801 19.7139 26.825 19.4375L26.75 20.825C26.75 21.675 26.75 21.9125 25.6875 22.6625C24.9122 23.1327 24.1063 23.5503 23.275 23.9125C22.575 24.2875 21.825 24.6125 21.0875 24.925C20.7 25.1 20.2875 25.2625 19.8375 25.425C19.8375 25.1125 19.95 23.8125 19.3875 23.8125C18.825 23.8125 18.4125 24.125 18.575 25.1625C18.6375 25.575 18.7 25.4375 18.8375 25.8375L15.7125 27.0875C14.5625 27.575 13.5 28.1625 12.3625 28.625C11.8993 28.8168 11.4231 28.9756 10.9375 29.1C10.8132 29.1281 10.7051 29.2045 10.6372 29.3124C10.5692 29.4202 10.5468 29.5506 10.575 29.675C10.6032 29.7993 10.6796 29.9073 10.7874 29.9753C10.8953 30.0433 11.0257 30.0656 11.15 30.0375C11.694 29.923 12.2288 29.7684 12.75 29.575C13.925 29.2 15.0375 28.7 16.2 28.325C17.775 27.775 19.3875 27.3 20.925 26.6875C21.9819 26.2604 23.0091 25.7634 24 25.2C24.8735 24.7415 25.7094 24.2149 26.5 23.625C27.0411 23.1763 27.4693 22.6069 27.75 21.9625C27.8198 21.8319 27.8542 21.6854 27.85 21.5375C27.85 21.2625 27.725 20.875 27.7125 20.6875C27.625 16.8875 28.675 20.0875 26.8375 15.85Z" fill="black"/>
<path fill-rule="evenodd" clip-rule="evenodd" d="M9.5375 28.9749C8.83779 28.6668 8.24898 28.1521 7.85 27.4999C7.20129 26.383 6.64124 25.2169 6.175 24.0124C5.875 23.3624 5.6 22.6999 5.325 22.0374C4.875 21.0374 3.475 17.4999 3.4375 17.3874C3.0875 16.5249 2.675 15.6749 2.3375 14.8124C2.2 14.4624 2.0625 14.1124 1.9375 13.7499C1.8125 13.3874 1.625 12.7249 1.5 12.1999C1.4081 11.8875 1.33299 11.5704 1.275 11.2499C1.19915 10.9743 1.19734 10.6836 1.26977 10.407C1.34219 10.1305 1.48628 9.87797 1.6875 9.67492C1.9125 9.36242 2.1625 9.07492 2.4125 8.78742C2.53063 9.81719 2.7059 10.8396 2.9375 11.8499C3.1875 12.9624 3.6 13.8249 3.9375 14.9499C4.0625 15.3499 4.1 15.5499 4.325 16.1374C4.41131 16.2619 4.53631 16.3544 4.68058 16.4005C4.82485 16.4467 4.98032 16.4438 5.12284 16.3925C5.26536 16.3412 5.38694 16.2443 5.4687 16.1168C5.55047 15.9893 5.58783 15.8383 5.575 15.6874C5.3875 15.1999 5.3375 15.0374 5.1875 14.6749C4.675 13.4249 4.2 12.1749 3.8125 10.9249C3.5875 9.99992 3.3625 9.13742 3.1875 8.24992C3.1875 8.24992 3.1875 8.17492 3.1125 8.12492C4.625 7.57492 6.125 6.87492 7.65 6.33742C8.32303 6.08403 9.01202 5.87524 9.7125 5.71242C10.1732 5.48725 10.6546 5.30724 11.15 5.17492C11.275 5.41242 11.4625 5.74992 11.6125 6.09992C11.7555 6.39698 11.8565 6.71251 11.9125 7.03742C11.9125 7.03742 11.9125 7.18742 11.9125 7.03742C11.8289 7.18229 11.7282 7.31659 11.6125 7.43742C11.3263 7.7398 11.09 8.08579 10.9125 8.46242C10.816 8.67877 10.7661 8.91302 10.7661 9.14992C10.7661 9.38683 10.816 9.62107 10.9125 9.83742C11.0855 10.3356 11.4032 10.7708 11.825 11.0874C12.2741 11.407 12.8308 11.5372 13.375 11.4499H13.6125C13.6053 11.4913 13.6053 11.5336 13.6125 11.5749L14.025 12.6124C14.4 13.2624 15.1 12.6749 14.9875 12.1499L14.675 11.1749C14.598 10.9034 14.5062 10.6364 14.4 10.3749C14.3559 10.2747 14.2867 10.1876 14.1991 10.1219C14.1115 10.0563 14.0085 10.0142 13.9 9.99992C13.7807 9.97262 13.6568 9.97262 13.5375 9.99992C13.4375 9.99992 13.075 10.0874 13.0875 10.2124C12.9146 10.193 12.7524 10.1185 12.625 9.99992C12.4493 9.83644 12.32 9.62946 12.25 9.39992C12.2275 9.3509 12.2159 9.2976 12.2159 9.24367C12.2159 9.18974 12.2275 9.13645 12.25 9.08742C12.435 8.8154 12.6534 8.56764 12.9 8.34992C13.1732 8.06088 13.3708 7.70877 13.475 7.32492C13.5206 6.89907 13.456 6.46865 13.2875 6.07492C13.0437 5.42046 12.7425 4.78884 12.3875 4.18742C12.2832 4.02648 12.1342 3.89939 11.9589 3.8217C11.7835 3.74401 11.5893 3.71907 11.4 3.74992C10.6861 3.88308 9.98069 4.05839 9.2875 4.27492C8.55075 4.5146 7.83223 4.80702 7.1375 5.14992C5.55 5.86242 4 6.76242 2.4625 7.49992L2.1875 7.68742C1.775 8.11242 1.325 8.54992 0.937497 9.02492C0.654265 9.3573 0.399217 9.7127 0.174997 10.0874C0.1152 10.2171 0.0812346 10.3572 0.0749969 10.4999C0.0749969 10.7749 0.137497 11.1749 0.137497 11.3374C0.137497 11.7249 0.212497 12.0999 0.287497 12.4874C0.362497 12.8749 0.487497 13.5749 0.599997 14.1249C0.726203 14.6768 0.889064 15.2197 1.0875 15.7499C1.3625 16.4999 1.675 17.2499 1.9625 17.9999C2.5 19.3624 3.025 20.7249 3.6125 22.0624C4.025 22.9624 4.475 23.8499 4.95 24.7124C5.51972 25.9398 6.18861 27.1187 6.95 28.2374C7.53462 29.0457 8.36246 29.6458 9.3125 29.9499C9.40188 29.9745 9.49669 29.9709 9.58395 29.9396C9.67121 29.9083 9.74666 29.8508 9.8 29.7749C9.87069 29.8453 9.96331 29.8894 10.0625 29.8999C10.1253 29.905 10.1884 29.8973 10.2481 29.8771C10.3078 29.857 10.3627 29.8249 10.4095 29.7827C10.4563 29.7406 10.4941 29.6893 10.5204 29.6321C10.5467 29.5749 10.561 29.5129 10.5625 29.4499C10.7028 28.8874 10.7989 28.3149 10.85 27.7374C10.5125 27.0874 10.15 26.8749 9.6 27.3499C9.47154 27.8821 9.4503 28.4345 9.5375 28.9749Z" fill="black"/>
<path fill-rule="evenodd" clip-rule="evenodd" d="M13.5125 2.1874L13.8625 2.63739C13.9875 2.77489 14.1125 2.9124 14.25 3.0374C15.5 4.2874 15.5 4.2874 15.825 4.1749C16.3875 3.89989 15.575 2.2749 15.475 2.0999C15.3635 1.89844 15.2247 1.71336 15.0625 1.5499C14.9138 1.38109 14.746 1.23008 14.5625 1.0999C12.925 -0.150105 12.6375 0.274895 12.525 0.449895C12.4125 0.624895 12.475 0.899895 13.5125 2.1874Z" fill="black"/>
<path fill-rule="evenodd" clip-rule="evenodd" d="M18.4125 3.74994C18.55 3.74994 18.8125 3.88744 19.4625 2.49994C19.5289 2.36897 19.5793 2.23047 19.6125 2.08744C19.6125 1.94994 19.6125 1.81244 19.6875 1.67494C19.8125 0.349936 19.8625 0.174936 19.525 0.0249359C19.3875 0.0249359 18.9875 -0.250064 18.275 1.27494C18.1964 1.41626 18.1376 1.56767 18.1 1.72494C18.0528 1.87515 18.0235 2.03038 18.0125 2.18744C18.0125 2.18744 17.95 3.74994 18.4125 3.74994Z" fill="black"/>
<path fill-rule="evenodd" clip-rule="evenodd" d="M23.0375 4.99987C23.225 4.91237 23.4 4.81237 23.575 4.71237L24.1125 4.37487C25.575 3.41237 25.8625 3.34987 25.7 2.89987C25.625 2.71237 25.5125 2.31237 23.45 2.99987C23.2174 3.08171 22.9916 3.18203 22.775 3.29987C22.5584 3.42276 22.3534 3.565 22.1625 3.72487C21.8625 3.99987 20.65 5.27487 21.1 5.69987C21.55 6.12487 21.3875 5.86237 23.0375 4.99987Z" fill="black"/>
<path fill-rule="evenodd" clip-rule="evenodd" d="M19 21.5499L18.2875 19.6999C18.5 19.5749 18.7375 19.4749 18.75 19.4624C19.1747 19.1065 19.5053 18.6514 19.7125 18.1374C19.8685 17.74 19.9075 17.3063 19.825 16.8874C19.7808 16.6335 19.6847 16.3915 19.5427 16.1765C19.4008 15.9614 19.216 15.7779 19 15.6374C18.4481 15.2813 17.7902 15.1268 17.1375 15.1999L16.4125 15.3499L16.25 15.1499L15.4625 13.7499C15.4625 13.7499 15.2375 13.0374 15.025 12.9749C14.425 12.7999 13.2875 13.8624 12.8125 14.1499C12.6275 14.2622 12.4354 14.3625 12.2375 14.4499C12.125 14.4499 11.6125 14.6374 11.4125 14.7374C11.2703 14.8194 11.1601 14.9472 11.1 15.0999C11.0787 15.2114 11.0787 15.3259 11.1 15.4374C11.1 15.6249 11.2625 15.9999 11.2625 16.1499C11.282 16.4667 11.2264 16.7837 11.1 17.0749C11.004 17.3119 10.8268 17.5069 10.6 17.6249C10.5236 17.6676 10.4375 17.69 10.35 17.69C10.2625 17.69 10.1764 17.6676 10.1 17.6249C9.827 17.4713 9.58531 17.2678 9.38749 17.0249C9.19455 16.7861 8.98574 16.5606 8.76249 16.3499C8.55796 16.1906 8.30896 16.0989 8.04999 16.0874C7.87238 16.0978 7.69638 16.1271 7.52499 16.1749C7.07499 16.2749 6.61249 16.5124 6.18749 16.5624H6.02499C5.62499 16.3999 4.54999 17.1249 4.69999 17.5499C4.69999 17.6374 5.94999 20.5249 6.38749 21.5499C6.71249 22.3624 7.03749 23.1624 7.38749 23.9499C7.62542 24.5552 7.92712 25.1335 8.28749 25.6749C8.51194 25.9514 8.77754 26.1917 9.07499 26.3874C9.56488 26.6511 10.1073 26.8025 10.6629 26.8306C11.2186 26.8587 11.7735 26.7628 12.2875 26.5499C13.143 26.3154 13.9788 26.0145 14.7875 25.6499C15.563 25.2732 16.3183 24.8559 17.05 24.3999C17.3625 24.2124 17.95 23.9749 18.4 23.6874C18.4 23.7874 19.2625 23.1749 19.3375 22.8749C19.366 22.4088 19.248 21.9455 19 21.5499ZM17.8375 18.3999C17.8375 18.3999 17.275 18.7749 17.0875 18.9249C16.958 19.0175 16.859 19.1467 16.8034 19.2959C16.7477 19.4451 16.7378 19.6076 16.775 19.7624L17.5 21.9999L17.625 22.2249L17.375 22.3624C16.95 22.5999 16.425 22.8124 16.125 22.9749C15.4375 23.3874 14.7375 23.7749 14 24.1249C13.285 24.4672 12.5455 24.7555 11.7875 24.9874C11.4196 25.1132 11.0375 25.193 10.65 25.2249C10.3164 25.2548 9.9808 25.1989 9.67499 25.0624C9.47153 24.9535 9.29939 24.7943 9.17499 24.5999C8.90262 24.2018 8.66028 23.784 8.44999 23.3499C7.94999 22.4124 7.48749 21.4624 7.03749 20.4999C6.58749 19.5374 6.34999 18.9499 6.01249 18.1624H6.27499C8.57499 17.5624 7.72499 17.6999 8.18749 18.1624C8.60194 18.6207 9.127 18.965 9.71249 19.1624C9.95808 19.2404 10.2173 19.2662 10.4734 19.2383C10.7296 19.2103 10.977 19.1291 11.2 18.9999C11.6164 18.7664 11.9487 18.4078 12.15 17.9749C12.4257 17.4043 12.5299 16.766 12.45 16.1374C12.419 16.0228 12.3635 15.9162 12.2875 15.8249C12.4625 15.7374 12.65 15.5874 12.7 15.5624C12.9321 15.4369 13.1574 15.2992 13.375 15.1499C13.7625 14.8749 14.1375 14.5624 14.5375 14.2874L15.2875 15.7749C15.3589 15.9897 15.4554 16.1953 15.575 16.3874C15.6721 16.5098 15.8094 16.5939 15.9625 16.6249C16.1324 16.6501 16.3051 16.6501 16.475 16.6249C16.725 16.6249 17.0125 16.4999 17.2375 16.4874C17.5462 16.4696 17.8537 16.5389 18.125 16.6874C18.2287 16.7351 18.32 16.8062 18.3916 16.8951C18.4631 16.984 18.5131 17.0884 18.5375 17.1999C18.5651 17.4258 18.5167 17.6545 18.4 17.8499C18.2465 18.0608 18.0609 18.2464 17.85 18.3999H17.8375Z" fill="black"/>
</svg>
