<svg width="31" height="28" viewBox="0 0 31 28" fill="none" xmlns="http://www.w3.org/2000/svg">
<path fill-rule="evenodd" clip-rule="evenodd" d="M20.3334 14.0749C20.3334 13.5874 20.0084 13.4124 19.8709 13.1624C19.5709 12.5874 18.9084 12.0499 19.0959 11.6124C19.3959 10.9499 20.3459 10.8124 21.0584 10.9874C21.5583 11.2184 22.0717 11.4187 22.5959 11.5874C23.0584 11.6624 23.4209 11.1999 23.8459 10.6874C24.4358 10.0305 24.8866 9.26082 25.1709 8.42492C25.1811 8.28038 25.1461 8.13626 25.0709 8.01242C24.3024 7.20443 23.4227 6.50997 22.4584 5.94992C22.4584 5.94992 22.2834 5.77492 22.1584 5.68742C22.5132 5.01799 22.6938 4.27 22.6834 3.51242C22.6249 2.96122 22.4136 2.43732 22.0733 1.9998C21.733 1.56227 21.2772 1.22852 20.7574 1.03618C20.2375 0.843836 19.6743 0.800548 19.1311 0.911198C18.588 1.02185 18.0866 1.28203 17.6834 1.66242C17.0459 2.37492 18.1084 2.74992 18.1959 2.13742L18.5959 1.82492C18.9413 1.63921 19.3301 1.5492 19.722 1.56423C20.1139 1.57926 20.4946 1.69878 20.8248 1.9104C21.155 2.12202 21.4226 2.41806 21.5999 2.76786C21.7773 3.11766 21.8579 3.5085 21.8334 3.89992C21.7301 4.4686 21.5269 5.01451 21.2334 5.51242C20.7459 6.51242 21.8459 6.33742 24.1084 8.46242C23.7248 9.16565 23.2311 9.80289 22.6459 10.3499L21.3959 9.82492C20.7651 9.60112 20.0761 9.60342 19.4468 9.83143C18.8175 10.0594 18.287 10.499 17.9459 11.0749C17.3709 12.3249 18.2959 12.9874 18.7209 13.7999C18.9959 14.3499 19.1584 13.9749 18.7209 14.8249C18.3832 15.4914 17.9633 16.1129 17.4709 16.6749C16.2209 16.2749 9.3459 12.6374 8.5209 11.2499C8.76494 10.3409 9.19011 9.49056 9.7709 8.74992C11.1834 9.49992 12.0334 10.1374 13.3209 9.39992C15.9459 7.87492 15.0959 4.87492 12.1334 4.39992C12.4657 3.63741 12.8851 2.91594 13.3834 2.24992C13.6959 1.91242 14.9584 2.53742 15.3334 2.72492C15.4295 2.77299 15.5408 2.7809 15.6428 2.74691C15.7448 2.71292 15.8291 2.63981 15.8771 2.54367C15.9252 2.44753 15.9331 2.33623 15.8991 2.23426C15.8651 2.13228 15.792 2.04799 15.6959 1.99992C12.9084 0.499918 12.8334 1.29992 11.2959 3.99992C11.0959 4.34992 10.8459 4.73742 11.1334 5.08742C11.4209 5.43742 12.2834 5.34992 12.6084 5.46242C13.4834 5.77492 14.2084 6.63742 13.7584 7.44992C13.4584 7.97492 12.7209 8.62492 12.1084 8.53742C9.6084 7.47492 9.7459 6.66242 8.6084 8.32492C7.93322 9.18223 7.50142 10.2056 7.3584 11.2874C7.3584 13.5249 17.0459 18.0249 17.6709 18.0499C18.7709 18.1124 20.3334 14.7749 20.3334 14.0749Z" fill="black"/>
<path fill-rule="evenodd" clip-rule="evenodd" d="M11.2209 23.4623C10.8209 21.7248 11.5459 17.1123 9.49587 17.1498C7.67087 17.1498 8.02087 18.6373 7.37087 20.3998C7.19587 20.8873 7.22087 20.9373 6.12087 19.9248C5.90952 19.7117 5.721 19.4771 5.55837 19.2248C5.65837 18.7373 5.45837 19.0998 5.83337 15.9748C5.97087 14.8623 5.92087 13.5623 4.93337 13.0373C4.62439 12.8665 4.26817 12.8009 3.91859 12.8505C3.56901 12.9001 3.2451 13.0622 2.99587 13.3123C2.84857 13.1021 2.64486 12.9378 2.40823 12.8382C2.1716 12.7387 1.91166 12.7081 1.65837 12.7498C0.333374 12.8998 0.333374 14.4248 0.333374 15.7123C0.408374 19.1373 3.08337 22.8123 5.63337 25.0998L6.40837 27.0748C6.52087 27.4123 7.24587 27.0123 7.12087 26.6748L6.58337 24.5873C6.58337 24.4248 1.29587 20.2373 1.34587 15.6998C1.34587 15.1873 1.34587 13.7998 1.82087 13.7498C2.54587 13.6748 2.40837 14.3248 3.40837 16.9373C3.76718 17.9181 4.22364 18.8604 4.77087 19.7498C5.32797 20.5658 6.09731 21.2141 6.99587 21.6248C8.55837 21.9123 8.34587 19.3498 8.82087 18.6248C8.93337 18.4373 9.14587 18.3498 9.49587 18.3373C10.7459 18.3373 9.77087 23.7873 10.5959 24.1498C10.8834 24.2873 11.4584 23.8873 11.2709 23.6373C11.2959 23.6123 11.2334 23.5373 11.2209 23.4623ZM3.34587 13.8998C3.4928 13.735 3.69588 13.6309 3.91546 13.6078C4.13504 13.5847 4.35535 13.6442 4.53337 13.7748C5.03337 14.1123 4.92087 15.3373 4.87087 16.0248C4.81295 16.6958 4.83393 17.3713 4.93337 18.0373C4.33045 16.6876 3.80052 15.3065 3.34587 13.8998Z" fill="black"/>
<path fill-rule="evenodd" clip-rule="evenodd" d="M19.3959 23.6374C19.2084 23.8874 19.7834 24.2874 20.0709 24.1499C20.8959 23.7874 19.9584 18.2874 21.1709 18.3374C21.5209 18.3374 21.7334 18.4374 21.8459 18.6249C22.3209 19.3499 22.1084 21.9124 23.6709 21.6249C24.5695 21.2142 25.3388 20.5659 25.8959 19.7499C26.4604 18.8625 26.9337 17.9202 27.3084 16.9374C28.3084 14.3249 28.1709 13.6749 28.8959 13.7499C29.4084 13.7499 29.3709 15.1874 29.3709 15.6999C29.3709 20.2374 24.1959 24.4499 24.1334 24.5874L23.5459 26.6749C23.4209 27.0124 24.1459 27.4124 24.2584 27.0749L25.0334 25.0999C27.5334 22.8124 30.2584 19.1374 30.3334 15.7124C30.3334 14.4624 30.3334 12.8999 29.0084 12.7499C28.7494 12.7006 28.4816 12.7274 28.2375 12.8273C27.9934 12.9271 27.7836 13.0956 27.6334 13.3124C27.3842 13.0623 27.0603 12.9002 26.7107 12.8506C26.3611 12.8009 26.0049 12.8665 25.6959 13.0374C24.7084 13.5624 24.6584 14.8624 24.7959 15.9749C25.1834 19.2249 24.9709 18.7624 25.0709 19.2249C24.9083 19.4772 24.7198 19.7118 24.5084 19.9249C23.4459 20.9374 23.4709 20.8874 23.2584 20.3999C22.6084 18.6374 22.9584 17.1749 21.1334 17.1499C19.0709 17.1499 19.8084 21.7249 19.4084 23.4624C19.4334 23.5374 19.3709 23.6124 19.3959 23.6374ZM25.7334 18.0374C25.8328 17.3713 25.8538 16.6959 25.7959 16.0249C25.7959 15.3374 25.6334 14.1124 26.1334 13.7749C26.3114 13.6443 26.5317 13.5847 26.7513 13.6078C26.9709 13.631 27.174 13.7351 27.3209 13.8999C26.8663 15.3065 26.3363 16.6877 25.7334 18.0374Z" fill="black"/>
</svg>
