<svg width="27" height="30" viewBox="0 0 27 30" fill="none" xmlns="http://www.w3.org/2000/svg">
<path fill-rule="evenodd" clip-rule="evenodd" d="M16.3 11.5C16.2181 11.2372 16.0707 10.9996 15.8717 10.8094C15.6727 10.6191 15.4287 10.4826 15.1625 10.4125C14.41 10.2795 13.64 10.2795 12.8875 10.4125C12.6006 10.4373 12.312 10.4373 12.025 10.4125C11.9396 10.4091 11.8557 10.3885 11.7784 10.352C11.7011 10.3155 11.632 10.2638 11.575 10.2C11.2625 9.7125 11.675 9.3875 12.175 9.1625C12.8409 8.85929 13.5691 8.71794 14.3 8.75C14.3912 8.77744 14.4895 8.76791 14.5737 8.72347C14.6579 8.67903 14.7212 8.60325 14.75 8.5125C14.759 8.4672 14.7585 8.42055 14.7487 8.37543C14.7389 8.33031 14.7199 8.28769 14.693 8.25019C14.666 8.2127 14.6317 8.18113 14.592 8.15745C14.5524 8.13377 14.5083 8.11847 14.4625 8.1125C14.0525 8.02136 13.6312 7.99187 13.2125 8.025C13.2069 7.9919 13.2069 7.9581 13.2125 7.925C13.2251 7.82958 13.2251 7.73292 13.2125 7.6375C13.2314 7.5468 13.2314 7.4532 13.2125 7.3625C13.15 7.125 13.0375 6.9375 12.9625 6.7125C12.9625 6.60641 12.9204 6.50467 12.8454 6.42966C12.7704 6.35464 12.6686 6.3125 12.5625 6.3125C12.4553 6.31575 12.3536 6.36064 12.2789 6.43765C12.2042 6.51466 12.1625 6.61773 12.1625 6.725C12.0811 6.9581 12.0143 7.19606 11.9625 7.4375C11.9563 7.5374 11.9563 7.6376 11.9625 7.7375C11.9496 7.83708 11.9496 7.93792 11.9625 8.0375L12.0375 8.2C11.5819 8.30586 11.1551 8.5107 10.7875 8.8C10.5066 9.03448 10.322 9.36428 10.2689 9.72634C10.2159 10.0884 10.2982 10.4573 10.5 10.7625C10.6273 10.9944 10.8063 11.194 11.023 11.3457C11.2398 11.4974 11.4885 11.5973 11.75 11.6375C12.4811 11.7184 13.2189 11.7184 13.95 11.6375C14.2153 11.5987 14.4848 11.5987 14.75 11.6375C14.8217 11.6529 14.888 11.6871 14.942 11.7365C14.9961 11.786 15.036 11.849 15.0576 11.919C15.0793 11.989 15.0819 12.0636 15.0652 12.1349C15.0484 12.2063 15.013 12.2719 14.9625 12.325C14.7464 12.5528 14.4872 12.7355 14.2 12.8625C13.5681 13.1452 12.8793 13.2778 12.1875 13.25C11.9863 13.2297 11.7909 13.1703 11.6125 13.075C11.4061 12.9693 11.213 12.8392 11.0375 12.6875C10.9965 12.6546 10.9494 12.6302 10.8989 12.6156C10.8484 12.6009 10.7956 12.5964 10.7433 12.6022C10.6911 12.608 10.6405 12.624 10.5945 12.6494C10.5484 12.6747 10.5078 12.7089 10.475 12.75C10.4047 12.8243 10.3655 12.9227 10.3655 13.025C10.3655 13.1273 10.4047 13.2257 10.475 13.3C10.7283 13.532 11.0047 13.7372 11.3 13.9125C11.5203 14.0259 11.7562 14.106 12 14.15C12.2246 14.1703 12.4505 14.1703 12.675 14.15C12.6691 14.2457 12.6691 14.3418 12.675 14.4375C12.6679 14.5332 12.6679 14.6293 12.675 14.725C12.75 14.9625 12.85 15.15 12.9375 15.375C12.9375 15.427 12.9479 15.4784 12.9682 15.5262C12.9884 15.5741 13.0181 15.6174 13.0554 15.6535C13.0927 15.6897 13.1369 15.7179 13.1854 15.7367C13.2339 15.7554 13.2856 15.7642 13.3375 15.7625C13.39 15.7644 13.4423 15.7552 13.491 15.7356C13.5397 15.716 13.5837 15.6864 13.6202 15.6487C13.6567 15.611 13.685 15.566 13.703 15.5167C13.7211 15.4674 13.7286 15.4149 13.725 15.3625C13.8147 15.131 13.8857 14.8928 13.9375 14.65C13.9506 14.5462 13.9506 14.4413 13.9375 14.3375C13.9506 14.2421 13.9506 14.1454 13.9375 14.05C14.5343 13.9278 15.1 13.6854 15.6 13.3375C15.8999 13.1483 16.1303 12.8669 16.2565 12.5355C16.3828 12.2042 16.398 11.8408 16.3 11.5Z" fill="black"/>
<path fill-rule="evenodd" clip-rule="evenodd" d="M4.10005 10.9875C3.48106 9.98473 3.14186 8.83449 3.11769 7.65628C3.09351 6.47808 3.38523 5.31489 3.96255 4.28753C4.21232 3.83626 4.57289 3.45601 5.01028 3.18265C5.44767 2.90928 5.94746 2.75179 6.46255 2.72503C7.60644 2.62941 8.75249 2.88215 9.75005 3.45003C10.4938 3.93444 11.1281 4.56882 11.6126 5.31253C12.1001 5.87503 12.5626 5.75003 12.8626 5.50003C12.9939 5.34689 13.1071 5.17912 13.2001 5.00003C13.5001 4.51253 13.7251 3.75003 14.0126 3.36253C14.5142 2.63416 15.2 2.05186 16.0001 1.67503C16.7792 1.30742 17.6578 1.20639 18.5001 1.38753C19.0456 1.53594 19.5522 1.80194 19.984 2.16688C20.4159 2.53181 20.7627 2.98684 21.0001 3.50003C21.5273 4.55687 21.8093 5.71907 21.8251 6.90003C21.7642 9.20799 21.0347 11.4487 19.7251 13.35C18.4695 15.3045 16.6337 16.8168 14.4751 17.675C14.4263 17.6918 14.3814 17.7182 14.343 17.7525C14.3046 17.7869 14.2734 17.8286 14.2513 17.8751C14.2291 17.9217 14.2165 17.9722 14.2142 18.0237C14.2118 18.0752 14.2198 18.1266 14.2376 18.175C14.2531 18.2249 14.2785 18.2711 14.3123 18.3109C14.3461 18.3507 14.3876 18.3832 14.4343 18.4066C14.481 18.4299 14.5319 18.4436 14.584 18.4468C14.6361 18.4499 14.6884 18.4425 14.7376 18.425C17.089 17.5525 19.1085 15.9658 20.5126 13.8875C21.9477 11.8347 22.7672 9.41496 22.875 6.91253C22.9144 5.26668 22.4806 3.6441 21.6251 2.23753C21.0061 1.22609 20.0286 0.485151 18.8876 0.162533C17.76 -0.123156 16.5685 -0.0128329 15.5126 0.475033C14.4713 0.926036 13.5725 1.65199 12.9126 2.57503C12.6574 3.02467 12.436 3.49262 12.2501 3.97503C11.7457 3.28806 11.108 2.70987 10.3751 2.27503C8.91313 1.45262 7.19627 1.20736 5.56255 1.58753C4.98438 1.7311 4.44444 1.99893 3.98031 2.37239C3.51618 2.74586 3.13901 3.21598 2.87505 3.75003C2.24351 4.95758 1.9432 6.31091 2.00468 7.67224C2.06616 9.03358 2.48724 10.3543 3.22505 11.5C5.28435 14.6024 8.27951 16.967 11.7751 18.25C12.2001 18.45 12.4251 17.9 12.1751 17.6375C8.84382 16.3375 6.01476 14.0077 4.10005 10.9875Z" fill="black"/>
<path fill-rule="evenodd" clip-rule="evenodd" d="M26 20.1624C25.9789 19.8082 25.8276 19.4743 25.575 19.2249C25.4533 19.1434 25.3165 19.0871 25.1727 19.0592C25.0288 19.0313 24.8809 19.0324 24.7375 19.0624C24.0875 19.1624 22.45 19.5499 22.3125 19.5624C20.1684 19.6608 18.1372 20.5517 16.6125 22.0624C15.4233 23.4726 14.7101 25.2226 14.575 27.0624C14.475 26.4374 14.3875 25.8124 14.3 25.0874C14.2125 24.3624 14.0875 23.5624 13.975 22.8249C13.6977 21.3363 13.4974 19.8343 13.375 18.3249C13.3802 18.2796 13.3761 18.2337 13.3631 18.19C13.35 18.1463 13.3282 18.1056 13.299 18.0706C13.2698 18.0355 13.2338 18.0068 13.1931 17.986C13.1525 17.9653 13.108 17.953 13.0625 17.9499C12.0875 17.8499 12.6125 19.5749 12.6125 22.3999C12.6428 22.9868 12.7096 23.5713 12.8125 24.1499C12.9 24.7249 13.0125 25.3124 13.1375 25.8749C13.1319 25.9373 13.1319 26.0001 13.1375 26.0624C12.3731 24.9754 11.4104 24.0424 10.3 23.3124C9.23647 22.6708 8.00207 22.3698 6.76252 22.4499C6.23662 22.4785 5.71614 22.5708 5.21252 22.7249C4.50002 22.9249 3.81252 23.2249 3.13752 23.4749L2.01252 23.8499H1.41252C1.23517 23.9012 1.08351 24.0172 0.987522 24.1749C0.916378 24.2871 0.878601 24.4171 0.878601 24.5499C0.878601 24.6827 0.916378 24.8128 0.987522 24.9249C1.23301 25.2744 1.55327 25.5647 1.92502 25.7749C2.57502 26.1749 3.47502 26.5124 3.90002 26.7624C5.69953 27.9 7.67689 28.7282 9.75002 29.2124C11.1919 29.5203 12.6945 29.3582 14.0375 28.7499C14.1729 29.1038 14.3359 29.4465 14.525 29.7749C14.5499 29.8222 14.584 29.8641 14.6254 29.898C14.6667 29.9319 14.7144 29.9572 14.7657 29.9723C14.817 29.9875 14.8708 29.9922 14.9239 29.9862C14.977 29.9802 15.0284 29.9636 15.075 29.9374C15.1673 29.8871 15.236 29.8026 15.2664 29.702C15.2968 29.6014 15.2865 29.4929 15.2375 29.3999C15.1873 29.314 15.1495 29.2214 15.125 29.1249C15.182 29.1578 15.2467 29.1752 15.3125 29.1752C15.3783 29.1752 15.443 29.1578 15.5 29.1249C16.0596 28.7212 16.6799 28.409 17.3375 28.1999C19.0567 27.8413 20.7328 27.3008 22.3375 26.5874C23.2133 26.0569 23.981 25.3656 24.6 24.5499C25.2302 23.7227 25.6814 22.7734 25.925 21.7624C26.0411 21.2373 26.0665 20.6961 26 20.1624ZM13.75 28.0249C12.5543 28.49 11.2428 28.5687 10 28.2499C8.08619 27.6943 6.27817 26.8241 4.65002 25.6749C4.30002 25.4624 3.67502 25.1874 3.10002 24.8749L3.68752 24.6874C4.33752 24.4249 4.93752 24.1374 5.67502 23.9124C6.08027 23.7697 6.49915 23.6692 6.92502 23.6124C7.94416 23.4878 8.97713 23.6752 9.88752 24.1499C11.4453 25.1448 12.7676 26.4672 13.7625 28.0249H13.75ZM24.75 20.7624C24.7266 20.9978 24.689 21.2316 24.6375 21.4624C24.4172 22.2941 24.0302 23.0724 23.5 23.7499C23.0081 24.4653 22.3845 25.0804 21.6625 25.5624C20.1674 26.2992 18.6009 26.8814 16.9875 27.2999C16.2532 27.5705 15.5657 27.9543 14.95 28.4374C14.95 28.4374 14.95 28.5249 14.95 28.5624C14.95 28.5999 14.8875 28.2999 14.85 28.1624C14.9355 28.1661 15.0192 28.1372 15.0842 28.0815C15.1492 28.0258 15.1906 27.9475 15.2 27.8624C15.3354 25.9612 16.1058 24.1606 17.3875 22.7499C18.7864 21.51 20.5932 20.8291 22.4625 20.8374C22.5875 20.8374 23.9375 20.5249 24.725 20.3999C24.7408 20.5201 24.7492 20.6412 24.75 20.7624Z" fill="black"/>
</svg>
