<svg width="40" height="40" viewBox="0 0 40 40" fill="none" xmlns="http://www.w3.org/2000/svg">
<path fill-rule="evenodd" clip-rule="evenodd" d="M32.9006 17.0641C32.5822 16.0372 27.525 10.6173 25.5958 10.0848C24.2933 9.97172 22.9837 9.97172 21.6812 10.0848C19.477 9.98892 17.2692 10.027 15.0695 10.199C14.3015 10.199 12.7095 9.9137 12.0539 10.6173C10.6895 11.8744 9.39513 13.2076 8.17678 14.6109C7.3922 15.4412 6.69539 16.3527 6.09774 17.3303C5.74186 18.091 6.43488 18.8136 6.94059 19.7074C7.44631 20.6012 9.88123 24.7469 12.185 28.5123C13.6273 30.9084 16.3431 33.5518 17.1298 34.7308C17.2043 34.8569 17.3251 34.9478 17.4656 34.9834C17.6061 35.0191 17.7548 34.9966 17.879 34.921C18.0032 34.8453 18.0927 34.7227 18.1278 34.58C18.1629 34.4374 18.1408 34.2864 18.0663 34.1603C18.2191 31.2401 18.1063 28.3117 17.7292 25.4125C17.2821 23.3815 16.6552 21.3957 15.8561 19.4792C18.2249 19.7925 20.6236 19.7925 22.9923 19.4792C22.646 20.3288 22.2456 21.1546 21.7936 21.9514C20.7594 24.2863 19.9563 26.7198 19.3961 29.2159C19.3617 29.2908 19.3421 29.3719 19.3386 29.4545C19.335 29.5371 19.3475 29.6196 19.3753 29.6973C19.4031 29.775 19.4458 29.8464 19.5008 29.9073C19.5558 29.9683 19.622 30.0177 19.6958 30.0526C19.7696 30.0876 19.8495 30.1075 19.9308 30.1111C20.0122 30.1147 20.0934 30.1021 20.17 30.0738C20.2465 30.0456 20.3168 30.0023 20.3768 29.9464C20.4369 29.8906 20.4855 29.8233 20.52 29.7484C22.1365 26.8952 23.395 23.8478 24.266 20.6773C24.4555 20.2617 24.5818 19.8192 24.6406 19.3651C26.7758 19.0989 28.8923 18.7946 30.9901 18.6425C30.2596 20.2779 20.7447 32.9242 19.3587 33.6659C19.2121 33.744 19.1022 33.8781 19.053 34.0386C19.0038 34.1991 19.0195 34.3728 19.0965 34.5216C19.1735 34.6704 19.3055 34.7821 19.4636 34.832C19.6217 34.8819 19.7928 34.866 19.9393 34.7879C21.4939 34.0082 28.78 24.7659 29.8476 23.3777C31.1025 21.6091 33.5187 19.1559 32.9006 17.0641ZM24.2285 12.1006C25.0339 12.1006 25.3149 12.1006 26.3076 12.9374C25.4668 13.9852 24.7267 15.1124 24.0974 16.3034C23.1602 15.2167 22.166 14.1819 21.1193 13.2036C20.6555 12.877 20.2172 12.5146 19.8082 12.1197C20.351 12.0912 20.8949 12.0912 21.4377 12.1197C22.3676 12.1694 23.2995 12.163 24.2285 12.1006ZM15.0695 12.2908C17.9352 12.2908 17.7292 11.9865 17.5044 12.443C17.3546 12.5951 14.1517 15.847 13.9644 16.2463C13.7463 15.0004 13.3946 13.7824 12.9155 12.6141C13.5894 12.303 14.3342 12.1846 15.0695 12.2718V12.2908ZM14.6012 19.8976C15.8561 28.3221 15.7625 24.0433 16.6615 32.5058C14.0581 29.349 13.9082 29.2159 8.43901 18.8517C8.43901 18.8517 7.98948 18.3192 7.78345 17.9769C8.15805 17.3874 9.18821 16.3604 9.65647 15.828C10.3597 15.0157 11.117 14.2532 11.9228 13.5459C12.0541 14.9035 12.3304 16.2426 12.7469 17.5395H9.95615C8.30789 17.2162 8.2517 18.4523 8.94472 18.6615L14.5638 19.27C14.545 19.5173 14.6012 19.7074 14.6012 19.8025V19.8976ZM15.1257 17.6156C15.8749 16.7218 18.3285 14.8581 18.8717 14.1735C20.2577 15.2765 22.4117 17.2542 22.6177 17.5775C20.1212 17.6985 17.6201 17.6794 15.1257 17.5205V17.6156ZM25.4085 17.4444C25.902 16.1926 26.5302 15 27.2815 13.8882C28.5554 14.9385 29.7687 16.0623 30.9152 17.2542C29.0422 17.2162 27.1692 17.2542 25.4085 17.3493V17.4444Z" fill="black"/>
<path fill-rule="evenodd" clip-rule="evenodd" d="M6.4499 9.58327C6.52505 9.70925 6.64716 9.80021 6.78938 9.83616C6.93159 9.8721 7.08226 9.85008 7.20824 9.77494C7.33422 9.69979 7.42518 9.57768 7.46113 9.43547C7.49707 9.29325 7.47505 9.14258 7.3999 9.0166C7.13324 8.33327 6.91657 7.68327 6.66657 7.04994C6.16545 6.14602 5.42049 5.40106 4.51657 4.89994C4.11657 4.69994 3.9499 5.0666 3.86657 5.1666C3.18324 6.1166 6.33324 9.44994 6.4499 9.58327Z" fill="black"/>
<path fill-rule="evenodd" clip-rule="evenodd" d="M33.55 9.51665C35.9166 6.84999 34.6666 8.71665 36.05 5.68332C36.1833 5.38332 36.1833 5.18332 36.1333 5.09999C36.0833 5.01665 35.8833 4.63332 35.4833 4.83332C34.5794 5.33444 33.8344 6.0794 33.3333 6.98332C33.0166 7.61665 32.8 8.24999 32.5333 8.93332C32.4559 9.06814 32.4353 9.22816 32.4759 9.37819C32.5166 9.52822 32.6151 9.65596 32.75 9.73332C32.8848 9.81067 33.0448 9.8313 33.1948 9.79067C33.3449 9.75004 33.4726 9.65147 33.55 9.51665Z" fill="black"/>
<path fill-rule="evenodd" clip-rule="evenodd" d="M5.52956 23C5.95076 23 6.24559 22.3621 5.71208 21.8448C5.03608 21.3556 4.27661 21.0663 3.4938 21C2.84798 21 0.334866 21.1207 0.040032 21.8103C-0.058246 22.0172 0.040032 22.1897 0.16639 22.3966C0.545462 22.8966 4.74334 23 5.52956 23Z" fill="black"/>
<path fill-rule="evenodd" clip-rule="evenodd" d="M40 21.7928C38.4879 20.9254 36.7577 20.7633 35.1502 21.3384C34.8504 21.4615 34.5615 21.6193 34.2877 21.8096C33.7645 22.2976 34.0332 22.9538 34.4715 22.9538C36.088 23.0846 37.7119 22.9372 39.293 22.5163C39.4893 22.4762 39.683 22.42 39.8727 22.3481C40 22.1125 40 21.9947 40 21.7928Z" fill="black"/>
<path fill-rule="evenodd" clip-rule="evenodd" d="M8.68332 29.25C6.48332 31.15 7.43332 29.4334 3.34999 34.5834C3.21665 34.8667 3.34999 35.4334 4.06665 35.15C6.26371 33.8867 8.13112 32.1221 9.51665 30C9.59182 29.8868 9.62378 29.7503 9.60669 29.6154C9.58961 29.4806 9.52463 29.3564 9.4236 29.2655C9.32257 29.1745 9.19222 29.123 9.05633 29.1201C8.92044 29.1173 8.78805 29.1634 8.68332 29.25Z" fill="black"/>
<path fill-rule="evenodd" clip-rule="evenodd" d="M33.6166 30.9167C32.8833 30.2667 31.9499 29.8 31.3166 29.1667C30.6833 28.5333 29.9833 29.3833 30.4833 29.9167C31.4215 31.2006 32.458 32.4097 33.5833 33.5333C33.8833 33.8167 35.9166 35.2 36.2999 35.2C36.6833 35.2 36.8333 34.95 36.6499 34.5667C36.6666 34.4333 34.0999 31.3333 33.6166 30.9167Z" fill="black"/>
</svg>
