<svg width="50" height="50" viewBox="0 0 50 50" fill="none" xmlns="http://www.w3.org/2000/svg">
<path fill-rule="evenodd" clip-rule="evenodd" d="M29.6667 19.1666C29.5301 18.7286 29.2844 18.3326 28.9528 18.0155C28.6212 17.6985 28.2145 17.4709 27.7708 17.3541C26.5167 17.1325 25.2334 17.1325 23.9792 17.3541C23.5009 17.3955 23.02 17.3955 22.5417 17.3541C22.3993 17.3484 22.2595 17.3141 22.1307 17.2532C22.0018 17.1924 21.8866 17.1062 21.7917 16.9999C21.2708 16.1874 21.9583 15.6458 22.7917 15.2708C23.9015 14.7654 25.1151 14.5298 26.3333 14.5833C26.4853 14.629 26.6491 14.6131 26.7895 14.539C26.9298 14.465 27.0354 14.3387 27.0833 14.1874C27.0982 14.1119 27.0975 14.0342 27.0811 13.959C27.0648 13.8838 27.0332 13.8127 26.9882 13.7502C26.9433 13.6877 26.8861 13.6351 26.82 13.5957C26.7539 13.5562 26.6805 13.5307 26.6042 13.5208C25.9208 13.3689 25.2187 13.3197 24.5208 13.3749C24.5115 13.3198 24.5115 13.2634 24.5208 13.2083C24.5418 13.0492 24.5418 12.8881 24.5208 12.7291C24.5523 12.5779 24.5523 12.4219 24.5208 12.2708C24.4167 11.8749 24.2292 11.5624 24.1042 11.1874C24.1042 11.0106 24.0339 10.841 23.9089 10.716C23.7839 10.591 23.6143 10.5208 23.4375 10.5208C23.2588 10.5262 23.0892 10.601 22.9648 10.7293C22.8403 10.8577 22.7708 11.0295 22.7708 11.2083C22.6351 11.5968 22.5238 11.9934 22.4375 12.3958C22.4272 12.5623 22.4272 12.7292 22.4375 12.8958C22.4159 13.0617 22.4159 13.2298 22.4375 13.3958L22.5625 13.6666C21.8031 13.843 21.0918 14.1844 20.4792 14.6666C20.011 15.0574 19.7033 15.6071 19.6149 16.2105C19.5265 16.8139 19.6636 17.4287 20 17.9374C20.2122 18.324 20.5104 18.6566 20.8717 18.9095C21.2329 19.1623 21.6475 19.3287 22.0833 19.3958C23.3018 19.5306 24.5315 19.5306 25.75 19.3958C26.1921 19.3311 26.6413 19.3311 27.0833 19.3958C27.2028 19.4214 27.3132 19.4783 27.4033 19.5608C27.4934 19.6433 27.5599 19.7482 27.596 19.8649C27.6321 19.9816 27.6364 20.1058 27.6086 20.2248C27.5807 20.3437 27.5217 20.453 27.4375 20.5416C27.0773 20.9213 26.6453 21.2258 26.1667 21.4374C25.1134 21.9085 23.9654 22.1296 22.8125 22.0833C22.4771 22.0495 22.1515 21.9504 21.8542 21.7916C21.5101 21.6154 21.1883 21.3986 20.8958 21.1458C20.8275 21.091 20.749 21.0502 20.6648 21.0258C20.5807 21.0014 20.4926 20.9939 20.4055 21.0035C20.3184 21.0132 20.2341 21.04 20.1574 21.0822C20.0807 21.1245 20.013 21.1815 19.9583 21.2499C19.8411 21.3737 19.7758 21.5378 19.7758 21.7083C19.7758 21.8788 19.8411 22.0428 19.9583 22.1666C20.3804 22.5532 20.8412 22.8953 21.3333 23.1874C21.7005 23.3764 22.0937 23.5098 22.5 23.5833C22.8742 23.6171 23.2508 23.6171 23.625 23.5833C23.6151 23.7428 23.6151 23.9029 23.625 24.0624C23.6131 24.2219 23.6131 24.3821 23.625 24.5416C23.75 24.9374 23.9167 25.2499 24.0625 25.6249C24.0625 25.7115 24.0798 25.7972 24.1136 25.877C24.1473 25.9567 24.1968 26.0289 24.259 26.0891C24.3212 26.1494 24.3948 26.1965 24.4756 26.2277C24.5564 26.2589 24.6426 26.2735 24.7292 26.2708C24.8166 26.2739 24.9037 26.2586 24.9849 26.2259C25.0661 26.1932 25.1395 26.1439 25.2003 26.081C25.2612 26.0182 25.3082 25.9433 25.3383 25.8611C25.3684 25.7789 25.3809 25.6914 25.375 25.6041C25.5244 25.2183 25.6428 24.8212 25.7292 24.4166C25.751 24.2437 25.751 24.0687 25.7292 23.8958C25.7509 23.7368 25.7509 23.5756 25.7292 23.4166C26.7238 23.2129 27.6666 22.8089 28.5 22.2291C28.9998 21.9138 29.3838 21.4447 29.5942 20.8924C29.8046 20.3402 29.83 19.7345 29.6667 19.1666Z" fill="black"/>
<path fill-rule="evenodd" clip-rule="evenodd" d="M9.33332 18.3125C8.30167 16.6411 7.73634 14.7241 7.69604 12.7604C7.65574 10.7967 8.14195 8.85806 9.10415 7.14581C9.52043 6.39368 10.1214 5.75994 10.8504 5.30433C11.5793 4.84872 12.4123 4.58624 13.2708 4.54164C15.1773 4.38228 17.0874 4.80351 18.75 5.74997C19.9895 6.55732 21.0468 7.61461 21.8541 8.85414C22.6666 9.79164 23.4375 9.58331 23.9375 9.16664C24.1564 8.9114 24.3451 8.63178 24.5 8.33331C25 7.52081 25.375 6.24997 25.8542 5.60414C26.6902 4.39019 27.8332 3.41969 29.1667 2.79164C30.4653 2.17894 31.9295 2.01056 33.3333 2.31247C34.2426 2.55981 35.0868 3.00315 35.8066 3.61138C36.5264 4.21961 37.1044 4.97799 37.5 5.83331C38.3788 7.59471 38.8488 9.5317 38.875 11.5C38.7735 15.3466 37.5577 19.081 35.375 22.25C33.2824 25.5073 30.2227 28.028 26.625 29.4583C26.5438 29.4863 26.4689 29.5302 26.4049 29.5875C26.3408 29.6447 26.2889 29.7142 26.252 29.7918C26.2151 29.8694 26.1941 29.9536 26.1902 30.0394C26.1863 30.1252 26.1995 30.211 26.2292 30.2916C26.255 30.3747 26.2973 30.4517 26.3537 30.5181C26.41 30.5844 26.4792 30.6386 26.557 30.6775C26.6349 30.7165 26.7198 30.7392 26.8066 30.7445C26.8935 30.7498 26.9805 30.7375 27.0625 30.7083C30.9816 29.2541 34.3473 26.6096 36.6875 23.1458C39.0793 19.7244 40.4453 15.6915 40.625 11.5208C40.6906 8.77771 39.9676 6.07341 38.5416 3.72914C37.5101 2.04339 35.8809 0.808503 33.9791 0.270808C32.0999 -0.205341 30.1141 -0.0214695 28.3541 0.791641C26.6188 1.54331 25.1208 2.75324 24.0208 4.29164C23.5955 5.04103 23.2265 5.82095 22.9167 6.62497C22.0761 5.48002 21.0132 4.51636 19.7916 3.79164C17.3551 2.42096 14.4937 2.01218 11.7708 2.64581C10.8072 2.88508 9.9073 3.33147 9.13375 3.95391C8.3602 4.57635 7.73158 5.35988 7.29165 6.24997C6.23909 8.26256 5.73857 10.5181 5.84103 12.787C5.9435 15.0559 6.64529 17.2571 7.87498 19.1666C11.3072 24.3372 16.2991 28.2782 22.125 30.4166C22.8333 30.75 23.2083 29.8333 22.7916 29.3958C17.2396 27.229 12.5245 23.346 9.33332 18.3125Z" fill="black"/>
<path fill-rule="evenodd" clip-rule="evenodd" d="M45.8333 33.604C45.7982 33.0136 45.5459 32.4571 45.125 32.0415C44.9221 31.9057 44.6941 31.8118 44.4544 31.7653C44.2147 31.7188 43.9681 31.7206 43.7292 31.7707C42.6458 31.9374 39.9167 32.5832 39.6875 32.604C36.114 32.768 32.7286 34.2528 30.1875 36.7707C28.2054 39.1211 27.0169 42.0377 26.7917 45.104C26.625 44.0624 26.4792 43.0207 26.3333 41.8124C26.1875 40.604 25.9792 39.2707 25.7917 38.0415C25.3294 35.5604 24.9956 33.0571 24.7917 30.5415C24.8003 30.466 24.7935 30.3895 24.7717 30.3166C24.7499 30.2438 24.7136 30.1761 24.6649 30.1177C24.6162 30.0592 24.5562 30.0113 24.4885 29.9767C24.4207 29.9422 24.3467 29.9217 24.2708 29.9165C22.6458 29.7499 23.5208 32.6249 23.5208 37.3332C23.5713 38.3114 23.6826 39.2855 23.8542 40.2499C24 41.2082 24.1875 42.1874 24.3958 43.1249C24.3864 43.2288 24.3864 43.3334 24.3958 43.4374C23.1218 41.6257 21.5173 40.0707 19.6667 38.854C17.8941 37.7846 15.8367 37.283 13.7708 37.4165C12.8943 37.4641 12.0269 37.618 11.1875 37.8749C10 38.2082 8.85416 38.7082 7.72916 39.1249L5.85416 39.7499H4.85416C4.55857 39.8354 4.30581 40.0287 4.14583 40.2915C4.02726 40.4784 3.96429 40.6952 3.96429 40.9165C3.96429 41.1379 4.02726 41.3546 4.14583 41.5415C4.55498 42.124 5.08874 42.6079 5.70833 42.9582C6.79166 43.6249 8.29166 44.1874 9 44.604C11.9992 46.5001 15.2948 47.8803 18.75 48.6874C21.1531 49.2005 23.6574 48.9303 25.8958 47.9165C26.1215 48.5064 26.3932 49.0776 26.7083 49.6249C26.7498 49.7037 26.8067 49.7735 26.8756 49.83C26.9445 49.8865 27.024 49.9286 27.1095 49.9539C27.1949 49.9791 27.2846 49.987 27.3731 49.977C27.4617 49.967 27.5473 49.9394 27.625 49.8957C27.7787 49.8119 27.8933 49.6709 27.944 49.5033C27.9947 49.3357 27.9774 49.1548 27.8958 48.9999C27.8122 48.8566 27.7491 48.7023 27.7083 48.5415C27.8033 48.5964 27.9111 48.6253 28.0208 48.6253C28.1305 48.6253 28.2383 48.5964 28.3333 48.5415C29.266 47.8686 30.2998 47.3483 31.3958 46.9999C34.2611 46.4022 37.0546 45.5013 39.7292 44.3124C41.1889 43.4282 42.4683 42.276 43.5 40.9165C44.5502 39.5378 45.3023 37.9557 45.7083 36.2707C45.9019 35.3955 45.9441 34.4936 45.8333 33.604ZM25.4167 46.7082C23.4237 47.4834 21.238 47.6146 19.1667 47.0832C15.9769 46.1572 12.9636 44.7068 10.25 42.7915C9.66666 42.4374 8.625 41.979 7.66666 41.4582L8.64583 41.1457C9.72916 40.7082 10.7292 40.229 11.9583 39.854C12.6337 39.6162 13.3319 39.4487 14.0417 39.354C15.7402 39.1463 17.4618 39.4587 18.9792 40.2499C21.5754 41.9081 23.7793 44.1119 25.4375 46.7082H25.4167ZM43.75 34.604C43.711 34.9963 43.6484 35.3859 43.5625 35.7707C43.1954 37.1569 42.5504 38.4539 41.6667 39.5832C40.8469 40.7754 39.8075 41.8006 38.6042 42.604C36.1123 43.832 33.5015 44.8023 30.8125 45.4999C29.5886 45.9508 28.4428 46.5905 27.4167 47.3957C27.4167 47.3957 27.4167 47.5415 27.4167 47.604C27.4167 47.6665 27.3125 47.1665 27.25 46.9374C27.3925 46.9435 27.532 46.8953 27.6403 46.8025C27.7486 46.7097 27.8176 46.5792 27.8333 46.4374C28.0589 43.2687 29.3429 40.2677 31.4792 37.9165C33.8107 35.85 36.822 34.7152 39.9375 34.729C40.1458 34.729 42.3958 34.2082 43.7083 33.9999C43.7347 34.2002 43.7486 34.402 43.75 34.604Z" fill="black"/>
</svg>
