<svg width="40" height="40" viewBox="0 0 40 40" fill="none" xmlns="http://www.w3.org/2000/svg">
<g clip-path="url(#clip0_332_3582)">
<path fill-rule="evenodd" clip-rule="evenodd" d="M39.8666 37.15V37.2833L39.7 36.6L39.2166 34.4667C39.0166 33.5833 38.8333 32.6833 38.6 31.8167C38.4416 31.1886 38.2298 30.5752 37.9666 29.9833C37.8006 29.6053 37.6114 29.238 37.4 28.8833C37.2493 28.7007 37.0756 28.5382 36.8833 28.4C36.6 27.7333 36.3333 27.05 36.0166 26.3833C35.55 25.3667 35.0333 24.3833 34.55 23.35C34.1554 22.5785 33.6865 21.8472 33.15 21.1667C32.7446 20.6762 32.2388 20.2784 31.6666 20C31.3344 19.8546 30.9788 19.7699 30.6166 19.75H28.6833C28.5523 19.7382 28.4214 19.7738 28.3144 19.8503C28.2074 19.9267 28.1313 20.039 28.1 20.1667C28.0247 20.0037 27.9355 19.8476 27.8333 19.7C27.6848 19.4895 27.4983 19.3086 27.2833 19.1667L25.8333 15.55C25.5304 14.5348 25.14 13.5478 24.6666 12.6C24.25 11.8757 23.6814 11.2502 23 10.7667C22.4229 10.3685 21.7494 10.1325 21.05 10.0833C20.2418 10.0725 19.4339 10.1227 18.6333 10.2333L12.5 10.6333C12.4405 10.5456 12.357 10.4769 12.2594 10.4355C12.1618 10.3941 12.0544 10.3818 11.95 10.4C11.8065 10.4393 11.6834 10.5319 11.606 10.6589C11.5285 10.786 11.5025 10.9378 11.5333 11.0833C11.5333 11.2833 11.5333 11.4833 11.6333 11.6667H11.4833C10.5166 12.5833 9.51664 13.5167 8.56664 14.5167C7.92105 15.1939 7.3198 15.9121 6.76664 16.6667C6.64995 16.8576 6.58663 17.0763 6.5833 17.3C6.63531 17.6709 6.7304 18.0345 6.86664 18.3833L7.24997 19.35H7.0333C6.85035 19.3334 6.66626 19.3334 6.4833 19.35C6.29264 19.3776 6.10722 19.4338 5.9333 19.5167C5.49648 19.698 5.087 19.9392 4.71664 20.2333C4.59655 20.2903 4.49743 20.3836 4.4333 20.5C4.4333 20.5 4.29997 20.5 4.24997 20.6C3.79442 21.0556 3.36108 21.5222 2.94997 22C2.34997 22.7167 1.76664 23.4667 1.2833 24.2167C1.06664 24.5 0.733304 24.8167 0.499971 25.1667C0.341593 25.399 0.228501 25.6591 0.166637 25.9333C0.0245526 26.6739 0.0820758 27.439 0.333304 28.15C0.651487 29.0337 1.05916 29.8826 1.54997 30.6833C2.0333 31.4833 2.5333 32.35 3.0333 33.0833C6.66664 38.8167 6.66664 38.8167 7.16664 38.8167C7.16664 38.8167 7.29997 38.95 7.39997 38.9667C9.95314 39.2961 12.5257 39.452 15.1 39.4333C17.7089 39.5311 20.3216 39.4364 22.9166 39.15C23.0568 39.1185 23.1886 39.0576 23.3036 38.9715C23.4185 38.8853 23.5138 38.7757 23.5833 38.65C23.5769 38.6226 23.5769 38.5941 23.5833 38.5667C23.5833 38.5667 23.6833 38.6667 23.7666 38.6833C26.3201 39.0115 28.8922 39.1729 31.4666 39.1667C34.0756 39.2555 36.6876 39.1608 39.2833 38.8833C39.439 38.8584 39.5861 38.795 39.7112 38.699C39.8363 38.603 39.9356 38.4773 40 38.3333C40.0833 38.1667 39.8666 37.15 39.8666 37.15ZM30.1333 21.1C30.3843 21.1429 30.6231 21.2396 30.8333 21.3833C31.1644 21.6463 31.4369 21.9756 31.6333 22.35C32.0388 22.9974 32.4008 23.6711 32.7166 24.3667L35 28.1333H30.25C30.2534 28.0834 30.2534 28.0333 30.25 27.9833C30.2581 28.0274 30.2581 28.0726 30.25 28.1167L30.0833 27.4333L29.6166 25.2833C29.4 24.4167 29.2333 23.5167 29 22.65C28.8288 22.0107 28.6059 21.3864 28.3333 20.7833C28.3333 20.7833 28.4333 20.7833 28.4833 20.7833C28.9833 20.9667 29.5833 21 30.1333 21.1ZM28.1 27.9167C26.7 28.0833 24.2833 28.25 21.8 28.3333H19.8833C19.8224 28.3258 19.7609 28.3258 19.7 28.3333H18.85H17.5166C16.4533 28.3352 15.3906 28.2795 14.3333 28.1667L14.0166 27.5833C14.3166 26.6 14.6166 25.6167 14.9333 24.65C15.25 23.6833 15.5333 22.9833 15.8666 22.1833C16.7166 20.1333 16.2 20.5167 22.5333 20.8833L25.55 20.9833H26.15C26.2666 21.1667 26.4833 21.3667 26.5333 21.4833C26.7432 21.9827 26.9214 22.4948 27.0666 23.0167C27.3 23.8667 27.4833 24.6833 27.7 25.5833L28.1 27.9167ZM18.8 12.2C19.5105 12.1586 20.2228 12.1586 20.9333 12.2C21.249 12.2206 21.5537 12.3241 21.8166 12.5C22.2367 12.8147 22.5883 13.2117 22.85 13.6667C23.3382 14.4765 23.7617 15.3235 24.1166 16.2L25.5166 18.9167H25.4H22.45H17.6166C15.4666 18.9167 16.3666 19.65 15.0166 15.9333C14.8666 15.5167 14.7 15.1167 14.5333 14.7167C14.3666 14.3167 14.1833 13.9167 14 13.5333L13.15 11.8667L18.8 12.2ZM9.84997 15.6333C10.5 14.7333 11.2 13.9667 11.8666 13.0667C11.8666 13.4667 11.9666 13.8833 12.0833 14.2833C12.2038 14.7285 12.3598 15.1632 12.55 15.5833C12.7333 16 12.95 16.4 13.1666 16.8C13.7 17.7333 14.3166 18.5833 14.8333 19.4667C14.8333 19.5667 14.9833 19.6 15.0666 19.6667C14.972 19.7587 14.8931 19.8657 14.8333 19.9833C14.6198 20.5594 14.4472 21.1497 14.3166 21.75C14.0166 22.6056 13.75 23.4722 13.5166 24.35C13.35 24.95 13.2166 25.55 13.0666 26.15L9.7333 19.8833L8.7833 17.7C8.7833 17.7 8.6833 17.5667 8.61664 17.4667C9.01664 16.85 9.41664 16.2333 9.84997 15.6333ZM3.3333 29.6167C2.91834 28.9311 2.56153 28.2119 2.26664 27.4667C2.09023 27.0978 2.00452 26.6921 2.01664 26.2833L2.64997 25.1833C3.09997 24.3833 3.54997 23.5167 4.04997 22.8167L4.46664 22.2167C4.6333 22.7833 4.7833 23.35 4.99997 23.8833C5.13712 24.2439 5.2986 24.5947 5.4833 24.9333C5.66664 25.2667 5.86664 25.6 6.0833 25.9167C6.60187 26.6559 7.15816 27.368 7.74997 28.05C7.84059 28.1937 7.98456 28.2954 8.15022 28.333C8.31587 28.3705 8.48965 28.3406 8.6333 28.25C8.77696 28.1594 8.87874 28.0154 8.91625 27.8498C8.95376 27.6841 8.92392 27.5103 8.8333 27.3667C8.46664 26.55 8.1833 25.7 7.81664 24.8667C7.58981 24.2929 7.32247 23.7359 7.01664 23.2C6.60428 22.5631 6.14759 21.9561 5.64997 21.3833H6.31664C6.57434 21.3813 6.83118 21.3534 7.0833 21.3C7.37889 21.2075 7.65957 21.0728 7.91664 20.9C8.34559 21.7604 8.82417 22.5951 9.34997 23.4C10.4 25.0667 11.55 26.4667 12.6833 28.05C13.8166 29.6333 12.6833 28.15 12.6833 28.2H11.0166H9.69997C9.38254 28.2248 9.07753 28.3342 8.81664 28.5167C8.57813 28.6898 8.39328 28.9266 8.2833 29.2C8.04997 29.7667 7.86664 30.7 7.76664 30.9833C7.4833 31.8333 7.21664 32.65 6.9833 33.5833C6.81664 34.1333 6.69997 34.6833 6.56664 35.25L3.3333 29.6167ZM15.0833 37.8C12.5949 37.9298 10.1007 37.8964 7.61664 37.7L7.26664 37.0333C7.54997 36.0833 7.8333 35.15 8.14997 34.2C8.46664 33.25 8.74997 32.5333 9.0833 31.75C9.91664 29.75 9.91664 30.0833 10.9 30.1833L15.6833 30.4333L18.7 30.55L19.3 30.6333C19.4 30.8167 19.6333 31.0167 19.6833 31.1333C19.8983 31.6307 20.0766 32.1432 20.2166 32.6667C20.45 33.5167 20.6333 34.3333 20.8333 35.2333L21.3833 37.3833C20 37.55 17.55 37.7 15.0833 37.8ZM21.5166 30H24.3C24.1833 30.4 24.0833 30.8 24.0333 30.95C23.7333 31.8167 23.4833 32.6167 23.2333 33.55C23.1166 33.9667 23.0333 34.4 22.9166 34.8167C22.7166 33.95 22.55 33.05 22.3166 32.1667C22.1399 31.5421 21.9227 30.9297 21.6666 30.3333L21.5166 30ZM31.5166 37.55C23.1833 37.85 24.25 37.1333 23.5833 37.65C23.5833 37.45 23.4333 37.3333 24.5833 33.9667C24.8666 33.1333 25.1666 32.3 25.5 31.5167C25.6 31.2833 26.3 30.4 26.2166 29.9667H27.2H27.3166L32.1166 30.2167L35.1166 30.3333H35.7166C35.9333 30.3333 36.05 30.7167 36.1 30.8333C36.3245 31.327 36.5031 31.8403 36.6333 32.3667C36.8833 33.2167 37.05 34.0333 37.2666 34.95L37.8166 37.0833C36.35 37.2833 33.9333 37.4333 31.4666 37.5167L31.5166 37.55Z" fill="black"/>
<path fill-rule="evenodd" clip-rule="evenodd" d="M2.98333 8.13335C2.95075 8.28976 2.97693 8.4527 3.05686 8.59104C3.13679 8.72939 3.26488 8.83344 3.41666 8.88334C3.90564 9.04798 4.36239 9.2961 4.76666 9.61668C5.14361 9.8857 5.45193 10.2397 5.66666 10.65C5.76666 10.8333 5.81666 11.6 5.91666 11.9167C5.98494 12.1396 6.11846 12.337 6.29999 12.4833C6.45744 12.6194 6.65857 12.6943 6.86666 12.6943C7.07474 12.6943 7.27588 12.6194 7.43333 12.4833C7.61896 12.3408 7.75345 12.142 7.81666 11.9167V11.2L8.33333 9.88335C8.48433 9.61791 8.65131 9.36189 8.83333 9.11668C8.99554 8.88812 9.18593 8.68093 9.39999 8.50001C9.39999 8.50001 9.99999 8.08335 10.1833 7.93335C10.3441 7.80873 10.471 7.6458 10.5525 7.45946C10.6341 7.27312 10.6676 7.06931 10.65 6.86668C10.5596 6.4931 10.3262 6.16992 9.99999 5.96668C9.64999 5.76668 8.71666 5.31668 8.61666 5.20001C8.4538 5.05137 8.30331 4.88972 8.16666 4.71668C7.94062 4.44671 7.73978 4.15661 7.56666 3.85001L7.31666 3.33335C7.21899 3.08795 7.09611 2.85336 6.94999 2.63335C6.84366 2.53055 6.7128 2.45668 6.56985 2.41875C6.4269 2.38083 6.27663 2.38011 6.13333 2.41668C5.9946 2.44102 5.86409 2.49946 5.75355 2.58674C5.643 2.67401 5.55587 2.78739 5.49999 2.91668C5.11942 3.92915 4.62751 4.8962 4.03333 5.80001C3.62778 6.34234 3.11058 6.79134 2.51666 7.11668C2.43751 7.13852 2.36405 7.17729 2.30137 7.23032C2.23869 7.28335 2.18828 7.34937 2.15363 7.42381C2.11899 7.49825 2.10093 7.57933 2.10071 7.66143C2.10049 7.74354 2.11812 7.82471 2.15237 7.89933C2.18662 7.97395 2.23668 8.04024 2.29908 8.0936C2.36148 8.14696 2.43473 8.18613 2.51376 8.20838C2.5928 8.23064 2.67572 8.23546 2.7568 8.2225C2.83787 8.20954 2.91517 8.17912 2.98333 8.13335ZM5.08333 6.66668C5.4787 6.25388 5.83055 5.8015 6.13333 5.31668C6.13333 5.45001 6.28333 5.58335 6.36666 5.70001C6.58238 6.04742 6.83374 6.3714 7.11666 6.66668C7.32685 6.83377 7.54975 6.98423 7.78333 7.11668C7.55552 7.34311 7.35423 7.59473 7.18333 7.86668C6.98182 8.21887 6.80904 8.58672 6.66666 8.96668V9.16668C6.47659 8.97678 6.27024 8.80389 6.04999 8.65001C5.43971 8.21193 4.75707 7.88471 4.03333 7.68335C4.41883 7.38316 4.77087 7.04231 5.08333 6.66668Z" fill="black"/>
<path fill-rule="evenodd" clip-rule="evenodd" d="M23.3333 9.28333L23.65 9.19999L23.85 9.28333C24.7779 9.52548 25.6386 9.97575 26.3666 10.6C27.0996 11.1803 27.6731 11.9373 28.0333 12.8L28.6 15.35C28.6218 15.4551 28.6641 15.5548 28.7245 15.6436C28.7849 15.7323 28.8622 15.8082 28.952 15.867C29.0418 15.9259 29.1423 15.9664 29.2477 15.9864C29.3532 16.0063 29.4616 16.0053 29.5666 15.9833C29.7175 15.9709 29.8626 15.9199 29.9881 15.8353C30.1136 15.7507 30.2153 15.6352 30.2833 15.5C30.3361 15.3357 30.3806 15.1688 30.4166 15L30.65 14.3167L31.4666 12.3833C31.7503 11.8924 32.0795 11.4292 32.45 11C32.8396 10.5771 33.2632 10.1869 33.7166 9.83333C34 9.59999 34.4166 9.41666 34.75 9.18333C34.9869 9.02545 35.2001 8.83465 35.3833 8.61666C35.5298 8.46037 35.6231 8.2618 35.6501 8.0493C35.677 7.8368 35.6361 7.62122 35.5333 7.43333C35.4216 7.21527 35.2476 7.0354 35.0333 6.91666L34.5333 6.78333L33.8833 6.54999C33.6066 6.4357 33.3438 6.29032 33.1 6.11666C32.8368 5.93442 32.5913 5.72796 32.3666 5.49999C32.004 5.14037 31.68 4.74376 31.4 4.31666C31.1294 3.9089 30.9163 3.46586 30.7666 2.99999C30.6666 2.71666 30.6666 2.06666 30.5666 1.66666C30.5215 1.39524 30.413 1.13829 30.25 0.91666C30.1611 0.802467 30.0474 0.710073 29.9174 0.646528C29.7874 0.582983 29.6446 0.549965 29.5 0.549993C29.3603 0.539394 29.2201 0.560923 29.0901 0.612926C28.9601 0.66493 28.8438 0.746027 28.75 0.849993C28.6209 0.976331 28.5336 1.1392 28.5 1.31666C28.4917 1.43318 28.4917 1.55014 28.5 1.66666L28.3333 2.36666C28.2509 2.68862 28.1508 3.00577 28.0333 3.31666C27.9127 3.63293 27.7678 3.9394 27.6 4.23333C27.0761 5.1426 26.4125 5.96376 25.6333 6.66666C24.8542 7.38109 23.9502 7.94605 22.9666 8.33333C22.8953 8.35601 22.8292 8.39261 22.7721 8.44099C22.715 8.48938 22.668 8.5486 22.6339 8.61523C22.5998 8.68187 22.5793 8.75459 22.5734 8.82922C22.5676 8.90384 22.5766 8.97887 22.6 9.04999C22.6704 9.17405 22.785 9.26698 22.9209 9.31023C23.0569 9.35349 23.2041 9.34388 23.3333 9.28333ZM26.5166 7.61666C27.4712 6.89362 28.3088 6.02793 29 5.04999C29.0833 4.91666 29.1666 4.79999 29.2333 4.66666C29.342 4.90682 29.4644 5.14054 29.6 5.36666C29.9365 5.96947 30.345 6.52914 30.8166 7.03333C31.1258 7.34901 31.4602 7.63886 31.8166 7.89999L32.3166 8.21666C31.7738 8.65409 31.2768 9.1455 30.8333 9.68333C30.3641 10.2395 29.9718 10.8561 29.6666 11.5167L29.4666 12.0667C28.9383 11.0501 28.1861 10.1668 27.2666 9.48333C26.6854 9.01979 26.0468 8.63326 25.3666 8.33333C25.751 8.13204 26.1238 7.90947 26.4833 7.66666L26.5166 7.61666Z" fill="black"/>
</g>
<defs>
<clipPath id="clip0_332_3582">
<rect width="40" height="40" fill="white"/>
</clipPath>
</defs>
</svg>
