<svg width="51" height="50" viewBox="0 0 51 50" fill="none" xmlns="http://www.w3.org/2000/svg">
<rect x="0.333374" width="50" height="50" rx="25" fill="#FFDBC0"/>
<g clip-path="url(#clip0_115_5921)">
<path fill-rule="evenodd" clip-rule="evenodd" d="M30.3334 25.0749C30.3334 24.5874 30.0084 24.4124 29.8709 24.1624C29.5709 23.5874 28.9084 23.0499 29.0959 22.6124C29.3959 21.9499 30.3459 21.8124 31.0584 21.9874C31.5583 22.2184 32.0717 22.4187 32.5959 22.5874C33.0584 22.6624 33.4209 22.1999 33.8459 21.6874C34.4358 21.0305 34.8866 20.2608 35.1709 19.4249C35.1811 19.2804 35.1461 19.1363 35.0709 19.0124C34.3024 18.2044 33.4227 17.51 32.4584 16.9499C32.4584 16.9499 32.2834 16.7749 32.1584 16.6874C32.5132 16.018 32.6938 15.27 32.6834 14.5124C32.6249 13.9612 32.4136 13.4373 32.0733 12.9998C31.733 12.5623 31.2772 12.2285 30.7574 12.0362C30.2375 11.8438 29.6743 11.8005 29.1311 11.9112C28.588 12.0218 28.0866 12.282 27.6834 12.6624C27.0459 13.3749 28.1084 13.7499 28.1959 13.1374L28.5959 12.8249C28.9413 12.6392 29.3301 12.5492 29.722 12.5642C30.1139 12.5793 30.4946 12.6988 30.8248 12.9104C31.155 13.122 31.4226 13.4181 31.5999 13.7679C31.7773 14.1177 31.8579 14.5085 31.8334 14.8999C31.7301 15.4686 31.5269 16.0145 31.2334 16.5124C30.7459 17.5124 31.8459 17.3374 34.1084 19.4624C33.7248 20.1656 33.2311 20.8029 32.6459 21.3499L31.3959 20.8249C30.7651 20.6011 30.0761 20.6034 29.4468 20.8314C28.8175 21.0594 28.287 21.499 27.9459 22.0749C27.3709 23.3249 28.2959 23.9874 28.7209 24.7999C28.9959 25.3499 29.1584 24.9749 28.7209 25.8249C28.3832 26.4914 27.9633 27.1129 27.4709 27.6749C26.2209 27.2749 19.3459 23.6374 18.5209 22.2499C18.7649 21.3409 19.1901 20.4906 19.7709 19.7499C21.1834 20.4999 22.0334 21.1374 23.3209 20.3999C25.9459 18.8749 25.0959 15.8749 22.1334 15.3999C22.4657 14.6374 22.8851 13.9159 23.3834 13.2499C23.6959 12.9124 24.9584 13.5374 25.3334 13.7249C25.4295 13.773 25.5408 13.7809 25.6428 13.7469C25.7448 13.7129 25.8291 13.6398 25.8771 13.5437C25.9252 13.4475 25.9331 13.3362 25.8991 13.2343C25.8651 13.1323 25.792 13.048 25.6959 12.9999C22.9084 11.4999 22.8334 12.2999 21.2959 14.9999C21.0959 15.3499 20.8459 15.7374 21.1334 16.0874C21.4209 16.4374 22.2834 16.3499 22.6084 16.4624C23.4834 16.7749 24.2084 17.6374 23.7584 18.4499C23.4584 18.9749 22.7209 19.6249 22.1084 19.5374C19.6084 18.4749 19.7459 17.6624 18.6084 19.3249C17.9332 20.1822 17.5014 21.2056 17.3584 22.2874C17.3584 24.5249 27.0459 29.0249 27.6709 29.0499C28.7709 29.1124 30.3334 25.7749 30.3334 25.0749Z" fill="black"/>
<path fill-rule="evenodd" clip-rule="evenodd" d="M21.2209 34.4623C20.8209 32.7248 21.5459 28.1123 19.4959 28.1498C17.6709 28.1498 18.0209 29.6373 17.3709 31.3998C17.1959 31.8873 17.2209 31.9373 16.1209 30.9248C15.9095 30.7117 15.721 30.4771 15.5584 30.2248C15.6584 29.7373 15.4584 30.0998 15.8334 26.9748C15.9709 25.8623 15.9209 24.5623 14.9334 24.0373C14.6244 23.8665 14.2682 23.8009 13.9186 23.8505C13.569 23.9001 13.2451 24.0622 12.9959 24.3123C12.8486 24.1021 12.6449 23.9378 12.4082 23.8382C12.1716 23.7387 11.9117 23.7081 11.6584 23.7498C10.3334 23.8998 10.3334 25.4248 10.3334 26.7123C10.4084 30.1373 13.0834 33.8123 15.6334 36.0998L16.4084 38.0748C16.5209 38.4123 17.2459 38.0123 17.1209 37.6748L16.5834 35.5873C16.5834 35.4248 11.2959 31.2373 11.3459 26.6998C11.3459 26.1873 11.3459 24.7998 11.8209 24.7498C12.5459 24.6748 12.4084 25.3248 13.4084 27.9373C13.7672 28.9181 14.2236 29.8604 14.7709 30.7498C15.328 31.5658 16.0973 32.2141 16.9959 32.6248C18.5584 32.9123 18.3459 30.3498 18.8209 29.6248C18.9334 29.4373 19.1459 29.3498 19.4959 29.3373C20.7459 29.3373 19.7709 34.7873 20.5959 35.1498C20.8834 35.2873 21.4584 34.8873 21.2709 34.6373C21.2959 34.6123 21.2334 34.5373 21.2209 34.4623ZM13.3459 24.8998C13.4928 24.735 13.6959 24.6309 13.9155 24.6078C14.135 24.5847 14.3554 24.6442 14.5334 24.7748C15.0334 25.1123 14.9209 26.3373 14.8709 27.0248C14.813 27.6958 14.8339 28.3713 14.9334 29.0373C14.3305 27.6876 13.8005 26.3065 13.3459 24.8998Z" fill="black"/>
<path fill-rule="evenodd" clip-rule="evenodd" d="M29.3959 34.6374C29.2084 34.8874 29.7834 35.2874 30.0709 35.1499C30.8959 34.7874 29.9584 29.2874 31.1709 29.3374C31.5209 29.3374 31.7334 29.4374 31.8459 29.6249C32.3209 30.3499 32.1084 32.9124 33.6709 32.6249C34.5695 32.2142 35.3388 31.5659 35.8959 30.7499C36.4604 29.8625 36.9337 28.9202 37.3084 27.9374C38.3084 25.3249 38.1709 24.6749 38.8959 24.7499C39.4084 24.7499 39.3709 26.1874 39.3709 26.6999C39.3709 31.2374 34.1959 35.4499 34.1334 35.5874L33.5459 37.6749C33.4209 38.0124 34.1459 38.4124 34.2584 38.0749L35.0334 36.0999C37.5334 33.8124 40.2584 30.1374 40.3334 26.7124C40.3334 25.4624 40.3334 23.8999 39.0084 23.7499C38.7494 23.7006 38.4816 23.7274 38.2375 23.8273C37.9934 23.9271 37.7836 24.0956 37.6334 24.3124C37.3842 24.0623 37.0603 23.9002 36.7107 23.8506C36.3611 23.8009 36.0049 23.8665 35.6959 24.0374C34.7084 24.5624 34.6584 25.8624 34.7959 26.9749C35.1834 30.2249 34.9709 29.7624 35.0709 30.2249C34.9083 30.4772 34.7198 30.7118 34.5084 30.9249C33.4459 31.9374 33.4709 31.8874 33.2584 31.3999C32.6084 29.6374 32.9584 28.1749 31.1334 28.1499C29.0709 28.1499 29.8084 32.7249 29.4084 34.4624C29.4334 34.5374 29.3709 34.6124 29.3959 34.6374ZM35.7334 29.0374C35.8328 28.3713 35.8538 27.6959 35.7959 27.0249C35.7959 26.3374 35.6334 25.1124 36.1334 24.7749C36.3114 24.6443 36.5317 24.5847 36.7513 24.6078C36.9709 24.631 37.174 24.7351 37.3209 24.8999C36.8663 26.3065 36.3363 27.6877 35.7334 29.0374Z" fill="black"/>
</g>
<defs>
<clipPath id="clip0_115_5921">
<rect width="30" height="30" fill="white" transform="translate(10.3334 10)"/>
</clipPath>
</defs>
</svg>
