<svg width="51" height="50" viewBox="0 0 51 50" fill="none" xmlns="http://www.w3.org/2000/svg">
<rect x="0.5" width="50" height="50" rx="25" fill="#BCEECE"/>
<path fill-rule="evenodd" clip-rule="evenodd" d="M28.3 21.5C28.2181 21.2372 28.0707 20.9996 27.8717 20.8094C27.6727 20.6191 27.4287 20.4826 27.1625 20.4125C26.41 20.2795 25.64 20.2795 24.8875 20.4125C24.6006 20.4373 24.312 20.4373 24.025 20.4125C23.9396 20.4091 23.8557 20.3885 23.7784 20.352C23.7011 20.3155 23.632 20.2638 23.575 20.2C23.2625 19.7125 23.675 19.3875 24.175 19.1625C24.8409 18.8593 25.5691 18.7179 26.3 18.75C26.3912 18.7774 26.4895 18.7679 26.5737 18.7235C26.6579 18.679 26.7212 18.6033 26.75 18.5125C26.759 18.4672 26.7585 18.4205 26.7487 18.3754C26.7389 18.3303 26.7199 18.2877 26.693 18.2502C26.666 18.2127 26.6317 18.1811 26.592 18.1574C26.5524 18.1338 26.5083 18.1185 26.4625 18.1125C26.0525 18.0214 25.6312 17.9919 25.2125 18.025C25.2069 17.9919 25.2069 17.9581 25.2125 17.925C25.2251 17.8296 25.2251 17.7329 25.2125 17.6375C25.2314 17.5468 25.2314 17.4532 25.2125 17.3625C25.15 17.125 25.0375 16.9375 24.9625 16.7125C24.9625 16.6064 24.9204 16.5047 24.8454 16.4297C24.7704 16.3546 24.6686 16.3125 24.5625 16.3125C24.4553 16.3158 24.3536 16.3606 24.2789 16.4377C24.2042 16.5147 24.1625 16.6177 24.1625 16.725C24.0811 16.9581 24.0143 17.1961 23.9625 17.4375C23.9563 17.5374 23.9563 17.6376 23.9625 17.7375C23.9496 17.8371 23.9496 17.9379 23.9625 18.0375L24.0375 18.2C23.5819 18.3059 23.1551 18.5107 22.7875 18.8C22.5066 19.0345 22.322 19.3643 22.2689 19.7263C22.2159 20.0884 22.2982 20.4573 22.5 20.7625C22.6273 20.9944 22.8063 21.194 23.023 21.3457C23.2398 21.4974 23.4885 21.5973 23.75 21.6375C24.4811 21.7184 25.2189 21.7184 25.95 21.6375C26.2153 21.5987 26.4848 21.5987 26.75 21.6375C26.8217 21.6529 26.888 21.6871 26.942 21.7365C26.9961 21.786 27.036 21.849 27.0576 21.919C27.0793 21.989 27.0819 22.0636 27.0652 22.1349C27.0484 22.2063 27.013 22.2719 26.9625 22.325C26.7464 22.5528 26.4872 22.7355 26.2 22.8625C25.5681 23.1452 24.8793 23.2778 24.1875 23.25C23.9863 23.2297 23.7909 23.1703 23.6125 23.075C23.4061 22.9693 23.213 22.8392 23.0375 22.6875C22.9965 22.6546 22.9494 22.6302 22.8989 22.6156C22.8484 22.6009 22.7956 22.5964 22.7433 22.6022C22.6911 22.608 22.6405 22.624 22.5945 22.6494C22.5484 22.6747 22.5078 22.7089 22.475 22.75C22.4047 22.8243 22.3655 22.9227 22.3655 23.025C22.3655 23.1273 22.4047 23.2257 22.475 23.3C22.7283 23.532 23.0047 23.7372 23.3 23.9125C23.5203 24.0259 23.7562 24.106 24 24.15C24.2246 24.1703 24.4505 24.1703 24.675 24.15C24.6691 24.2457 24.6691 24.3418 24.675 24.4375C24.6679 24.5332 24.6679 24.6293 24.675 24.725C24.75 24.9625 24.85 25.15 24.9375 25.375C24.9375 25.427 24.9479 25.4784 24.9682 25.5262C24.9884 25.5741 25.0181 25.6174 25.0554 25.6535C25.0927 25.6897 25.1369 25.7179 25.1854 25.7367C25.2339 25.7554 25.2856 25.7642 25.3375 25.7625C25.39 25.7644 25.4423 25.7552 25.491 25.7356C25.5397 25.716 25.5837 25.6864 25.6202 25.6487C25.6567 25.611 25.685 25.566 25.703 25.5167C25.7211 25.4674 25.7286 25.4149 25.725 25.3625C25.8147 25.131 25.8857 24.8928 25.9375 24.65C25.9506 24.5462 25.9506 24.4413 25.9375 24.3375C25.9506 24.2421 25.9506 24.1454 25.9375 24.05C26.5343 23.9278 27.1 23.6854 27.6 23.3375C27.8999 23.1483 28.1303 22.8669 28.2565 22.5355C28.3828 22.2042 28.398 21.8408 28.3 21.5Z" fill="black"/>
<path fill-rule="evenodd" clip-rule="evenodd" d="M16.1001 20.9875C15.4811 19.9847 15.1419 18.8345 15.1177 17.6563C15.0935 16.4781 15.3852 15.3149 15.9626 14.2875C16.2123 13.8363 16.5729 13.456 17.0103 13.1826C17.4477 12.9093 17.9475 12.7518 18.4626 12.725C19.6064 12.6294 20.7525 12.8822 21.7501 13.45C22.4938 13.9344 23.1281 14.5688 23.6126 15.3125C24.1001 15.875 24.5626 15.75 24.8626 15.5C24.9939 15.3469 25.1071 15.1791 25.2001 15C25.5001 14.5125 25.7251 13.75 26.0126 13.3625C26.5142 12.6342 27.2 12.0519 28.0001 11.675C28.7792 11.3074 29.6578 11.2064 30.5001 11.3875C31.0456 11.5359 31.5522 11.8019 31.984 12.1669C32.4159 12.5318 32.7627 12.9868 33.0001 13.5C33.5273 14.5569 33.8093 15.7191 33.8251 16.9C33.7642 19.208 33.0347 21.4487 31.7251 23.35C30.4695 25.3045 28.6337 26.8168 26.4751 27.675C26.4263 27.6918 26.3814 27.7182 26.343 27.7525C26.3046 27.7869 26.2734 27.8286 26.2513 27.8751C26.2291 27.9217 26.2165 27.9722 26.2142 28.0237C26.2118 28.0752 26.2198 28.1266 26.2376 28.175C26.2531 28.2249 26.2785 28.2711 26.3123 28.3109C26.3461 28.3507 26.3876 28.3832 26.4343 28.4066C26.481 28.4299 26.5319 28.4436 26.584 28.4468C26.6361 28.4499 26.6884 28.4425 26.7376 28.425C29.089 27.5525 31.1085 25.9658 32.5126 23.8875C33.9477 21.8347 34.7672 19.415 34.875 16.9125C34.9144 15.2667 34.4806 13.6441 33.6251 12.2375C33.0061 11.2261 32.0286 10.4852 30.8876 10.1625C29.76 9.87684 28.5685 9.98717 27.5126 10.475C26.4713 10.926 25.5725 11.652 24.9126 12.575C24.6574 13.0247 24.436 13.4926 24.2501 13.975C23.7457 13.2881 23.108 12.7099 22.3751 12.275C20.9131 11.4526 19.1963 11.2074 17.5626 11.5875C16.9844 11.7311 16.4444 11.9989 15.9803 12.3724C15.5162 12.7459 15.139 13.216 14.8751 13.75C14.2435 14.9576 13.9432 16.3109 14.0047 17.6722C14.0662 19.0336 14.4872 20.3543 15.2251 21.5C17.2844 24.6024 20.2795 26.967 23.7751 28.25C24.2001 28.45 24.4251 27.9 24.1751 27.6375C20.8438 26.3375 18.0148 24.0077 16.1001 20.9875Z" fill="black"/>
<path fill-rule="evenodd" clip-rule="evenodd" d="M38 30.1624C37.9789 29.8082 37.8276 29.4743 37.575 29.2249C37.4533 29.1434 37.3165 29.0871 37.1727 29.0592C37.0288 29.0313 36.8809 29.0324 36.7375 29.0624C36.0875 29.1624 34.45 29.5499 34.3125 29.5624C32.1684 29.6608 30.1372 30.5517 28.6125 32.0624C27.4233 33.4726 26.7101 35.2226 26.575 37.0624C26.475 36.4374 26.3875 35.8124 26.3 35.0874C26.2125 34.3624 26.0875 33.5624 25.975 32.8249C25.6977 31.3363 25.4974 29.8343 25.375 28.3249C25.3802 28.2796 25.3761 28.2337 25.3631 28.19C25.35 28.1463 25.3282 28.1056 25.299 28.0706C25.2698 28.0355 25.2338 28.0068 25.1931 27.986C25.1525 27.9653 25.108 27.953 25.0625 27.9499C24.0875 27.8499 24.6125 29.5749 24.6125 32.3999C24.6428 32.9868 24.7096 33.5713 24.8125 34.1499C24.9 34.7249 25.0125 35.3124 25.1375 35.8749C25.1319 35.9373 25.1319 36.0001 25.1375 36.0624C24.3731 34.9754 23.4104 34.0424 22.3 33.3124C21.2365 32.6708 20.0021 32.3698 18.7625 32.4499C18.2366 32.4785 17.7161 32.5708 17.2125 32.7249C16.5 32.9249 15.8125 33.2249 15.1375 33.4749L14.0125 33.8499H13.4125C13.2352 33.9012 13.0835 34.0172 12.9875 34.1749C12.9164 34.2871 12.8786 34.4171 12.8786 34.5499C12.8786 34.6827 12.9164 34.8128 12.9875 34.9249C13.233 35.2744 13.5533 35.5647 13.925 35.7749C14.575 36.1749 15.475 36.5124 15.9 36.7624C17.6995 37.9 19.6769 38.7282 21.75 39.2124C23.1919 39.5203 24.6945 39.3582 26.0375 38.7499C26.1729 39.1038 26.3359 39.4465 26.525 39.7749C26.5499 39.8222 26.584 39.8641 26.6254 39.898C26.6667 39.9319 26.7144 39.9572 26.7657 39.9723C26.817 39.9875 26.8708 39.9922 26.9239 39.9862C26.977 39.9802 27.0284 39.9636 27.075 39.9374C27.1673 39.8871 27.236 39.8026 27.2664 39.702C27.2968 39.6014 27.2865 39.4929 27.2375 39.3999C27.1873 39.314 27.1495 39.2214 27.125 39.1249C27.182 39.1578 27.2467 39.1752 27.3125 39.1752C27.3783 39.1752 27.443 39.1578 27.5 39.1249C28.0596 38.7212 28.6799 38.409 29.3375 38.1999C31.0567 37.8413 32.7328 37.3008 34.3375 36.5874C35.2133 36.0569 35.981 35.3656 36.6 34.5499C37.2302 33.7227 37.6814 32.7734 37.925 31.7624C38.0411 31.2373 38.0665 30.6961 38 30.1624ZM25.75 38.0249C24.5543 38.49 23.2428 38.5687 22 38.2499C20.0862 37.6943 18.2782 36.8241 16.65 35.6749C16.3 35.4624 15.675 35.1874 15.1 34.8749L15.6875 34.6874C16.3375 34.4249 16.9375 34.1374 17.675 33.9124C18.0803 33.7697 18.4992 33.6692 18.925 33.6124C19.9442 33.4878 20.9771 33.6752 21.8875 34.1499C23.4453 35.1448 24.7676 36.4672 25.7625 38.0249H25.75ZM36.75 30.7624C36.7266 30.9978 36.689 31.2316 36.6375 31.4624C36.4172 32.2941 36.0302 33.0724 35.5 33.7499C35.0081 34.4653 34.3845 35.0804 33.6625 35.5624C32.1674 36.2992 30.6009 36.8814 28.9875 37.2999C28.2532 37.5705 27.5657 37.9543 26.95 38.4374C26.95 38.4374 26.95 38.5249 26.95 38.5624C26.95 38.5999 26.8875 38.2999 26.85 38.1624C26.9355 38.1661 27.0192 38.1372 27.0842 38.0815C27.1492 38.0258 27.1906 37.9475 27.2 37.8624C27.3354 35.9612 28.1058 34.1606 29.3875 32.7499C30.7864 31.51 32.5932 30.8291 34.4625 30.8374C34.5875 30.8374 35.9375 30.5249 36.725 30.3999C36.7408 30.5201 36.7492 30.6412 36.75 30.7624Z" fill="black"/>
</svg>
