<svg width="51" height="50" viewBox="0 0 51 50" fill="none" xmlns="http://www.w3.org/2000/svg">
<rect x="0.666626" width="50" height="50" rx="25" fill="#EEE1FF"/>
<g clip-path="url(#clip0_115_5927)">
<path d="M25.0416 24.55C25.2626 24.7797 25.4963 24.9967 25.7416 25.2C26.1291 25.55 26.5166 25.825 26.8541 26.175C26.9187 26.2591 27.0132 26.3151 27.1179 26.3314C27.2226 26.3477 27.3296 26.323 27.4166 26.2625C27.461 26.2327 27.4988 26.194 27.5275 26.1489C27.5562 26.1038 27.5753 26.0533 27.5835 26.0004C27.5917 25.9476 27.5889 25.8936 27.5752 25.8419C27.5616 25.7902 27.5374 25.7419 27.5041 25.7C27.2757 25.2324 27.0081 24.785 26.7041 24.3625C26.5718 24.1845 26.4255 24.0173 26.2666 23.8625C26.1108 23.7 25.9391 23.5535 25.7541 23.425L25.4291 23.2375C26.258 22.4554 26.8946 21.4921 27.2893 20.4231C27.684 19.354 27.8259 18.2081 27.7041 17.075C27.4416 13.55 25.0541 10.2125 20.8041 10.275C15.8916 10.4375 13.1666 13.85 13.0541 17.2625C13.0068 18.6088 13.3829 19.9361 14.1297 21.0573C14.8764 22.1786 15.9561 23.0373 17.2166 23.5125C16.0873 24.1903 15.0243 24.973 14.0416 25.85C13.2305 26.5481 12.5159 27.351 11.9166 28.2375C11.386 28.9834 11.008 29.8267 10.8042 30.7191C10.6004 31.6114 10.5749 32.5353 10.7291 33.4375C10.7408 33.4925 10.7635 33.5446 10.796 33.5905C10.8285 33.6363 10.87 33.6751 10.918 33.7044C10.966 33.7336 11.0194 33.7528 11.0751 33.7606C11.1308 33.7685 11.1874 33.7649 11.2416 33.75C11.3444 33.7316 11.4364 33.675 11.499 33.5915C11.5616 33.508 11.5903 33.4038 11.5791 33.3C11.5187 31.7217 12.0441 30.1768 13.0541 28.9625C13.6279 28.1834 14.2588 27.4481 14.9416 26.7625C15.9551 25.7296 17.0322 24.761 18.1666 23.8625C18.9096 24.0635 19.6726 24.1809 20.4416 24.2125C20.4886 24.2159 20.5358 24.2098 20.5804 24.1945C20.6249 24.1792 20.666 24.1551 20.701 24.1236C20.736 24.0921 20.7643 24.0538 20.7842 24.0111C20.804 23.9684 20.8151 23.9221 20.8166 23.875C20.8203 23.7829 20.7887 23.6929 20.7284 23.6232C20.668 23.5535 20.5833 23.5095 20.4916 23.5C16.1416 23.1375 14.1541 20.3625 14.2416 17.5375H14.3416C14.9475 17.8182 15.6003 17.9835 16.2666 18.025C16.5491 18.0558 16.8341 18.0558 17.1166 18.025C17.3971 17.9835 17.6733 17.9166 17.9416 17.825C18.589 17.594 19.1748 17.2177 19.6541 16.725C19.7087 16.6585 19.7395 16.5757 19.7417 16.4897C19.744 16.4037 19.7176 16.3194 19.6666 16.25C19.9877 16.4438 20.3219 16.6151 20.6666 16.7625C21.2698 17.0455 21.903 17.2594 22.5541 17.4C23.8895 17.6552 25.2578 17.6889 26.6041 17.5C26.7916 21 24.7791 23.4875 21.9166 23.875C21.8231 23.8988 21.7413 23.9556 21.6864 24.035C21.6314 24.1144 21.607 24.2109 21.6177 24.3069C21.6284 24.4028 21.6734 24.4916 21.7444 24.557C21.8154 24.6224 21.9077 24.6599 22.0041 24.6625C22.8833 24.5948 23.7368 24.3344 24.5041 23.9C24.6666 24.125 24.8416 24.3375 25.0416 24.55ZM19.0916 16.125C18.7084 16.3529 18.2834 16.5017 17.8416 16.5625C17.6291 16.5625 17.4166 16.5625 17.1916 16.6625L16.2166 16.8C15.6641 16.8993 15.1028 16.9412 14.5416 16.925C14.501 16.9042 14.456 16.8933 14.4104 16.8933C14.3648 16.8933 14.3198 16.9042 14.2791 16.925C14.3918 16.1065 14.6719 15.32 15.1021 14.6146C15.5322 13.9092 16.1031 13.3 16.7791 12.825C17.3089 13.9197 18.0577 14.8939 18.9791 15.6875C19.1416 15.825 19.3166 15.9375 19.4916 16.0625C19.4257 16.0351 19.3534 16.0264 19.2828 16.0374C19.2122 16.0484 19.1461 16.0788 19.0916 16.125ZM22.8416 16.125C22.2838 15.9615 21.7403 15.7524 21.2166 15.5C20.6977 15.2496 20.2002 14.9569 19.7291 14.625C18.8391 14.0169 18.0645 13.2549 17.4416 12.375C18.498 11.8676 19.6573 11.611 20.8291 11.625C24.1416 11.5125 26.0541 13.975 26.5166 16.6875C25.2848 16.6938 24.0589 16.5169 22.8791 16.1625L22.8416 16.125Z" fill="black"/>
<path d="M21.1541 26.575C21.164 26.5227 21.1622 26.4688 21.1488 26.4172C21.1355 26.3656 21.1109 26.3176 21.0769 26.2766C21.0429 26.2356 21.0002 26.2026 20.952 26.1799C20.9038 26.1573 20.8512 26.1455 20.7979 26.1455C20.7446 26.1455 20.692 26.1573 20.6437 26.1799C20.5955 26.2026 20.5529 26.2356 20.5189 26.2766C20.4848 26.3176 20.4603 26.3656 20.4469 26.4172C20.4336 26.4688 20.4318 26.5227 20.4416 26.575C20.3166 27.2125 20.1791 27.825 20.1041 28.5V29.3375V30.1625C20.1666 30.8125 20.2791 31.4125 20.3666 32.0875C20.3699 32.1981 20.4161 32.303 20.4954 32.38C20.5748 32.457 20.681 32.5001 20.7916 32.5C20.8988 32.4968 21.0006 32.4519 21.0753 32.3749C21.1499 32.2979 21.1917 32.1948 21.1916 32.0875C21.2541 31.4375 21.3416 30.8375 21.3916 30.1625V29.35V28.525C21.3416 27.8375 21.2291 27.2125 21.1541 26.575Z" fill="black"/>
<path d="M39.4166 29.5625C39.6166 29.425 39.7916 29.275 39.8416 29.2375C40.1051 29.0126 40.319 28.7353 40.4696 28.4232C40.6202 28.1112 40.7044 27.7713 40.7166 27.425C40.7573 26.7471 40.5433 26.0784 40.1166 25.55C39.9791 25.3919 39.8286 25.2456 39.6666 25.1125C39.5081 24.9847 39.341 24.8678 39.1666 24.7625C39.0132 24.6659 38.8498 24.5863 38.6791 24.525C38.5054 24.4603 38.3252 24.4142 38.1416 24.3875C37.8495 24.3168 37.5456 24.3091 37.2503 24.3652C36.955 24.4212 36.675 24.5397 36.4291 24.7125C36.1746 24.9445 35.963 25.2195 35.8041 25.525C35.6885 25.753 35.5412 25.9634 35.3666 26.15C35.2585 26.0649 35.1458 25.9856 35.0291 25.9125L33.1666 24.0875C33.0992 24.0234 33.0097 23.9875 32.9166 23.9875C32.8236 23.9875 32.7341 24.0234 32.6666 24.0875C32.6329 24.1347 32.6036 24.185 32.5791 24.2375C32.5155 24.1976 32.4418 24.1764 32.3666 24.1764C32.2915 24.1764 32.2178 24.1976 32.1541 24.2375C31.8666 24.4875 30.8291 25.25 30.2791 25.8125C30.0617 26.0075 29.9018 26.2582 29.8166 26.5375C29.8038 26.6688 29.8346 26.8006 29.9041 26.9125C30.0166 27.1125 30.4041 27.475 30.4791 27.6125C30.6916 27.9927 30.779 28.43 30.7291 28.8625C30.7253 29.0347 30.6642 29.2006 30.5555 29.3341C30.4469 29.4677 30.2969 29.5612 30.1291 29.6C29.9097 29.6371 29.6843 29.6111 29.4791 29.525C29.0911 29.3647 28.7256 29.1546 28.3916 28.9C28.1661 28.7002 27.9235 28.5203 27.6666 28.3625C27.4889 28.2603 27.279 28.229 27.0791 28.275C26.5412 28.4167 26.0399 28.6719 25.6087 29.0233C25.1775 29.3747 24.8264 29.8143 24.5791 30.3125C24.3047 30.8632 24.1975 31.4822 24.2708 32.0931C24.3441 32.7039 24.5947 33.28 24.9916 33.75C26.0596 35.2308 27.2786 36.5965 28.6291 37.825C29.5831 38.6625 30.7035 39.2888 31.9166 39.6625C32.4199 39.7876 32.9518 39.7161 33.4041 39.4625C34.178 39.0046 34.8742 38.4265 35.4666 37.7501C35.7432 37.4399 36.0019 37.1144 36.2416 36.775C36.3438 36.6281 36.391 36.4499 36.375 36.2717C36.359 36.0934 36.2808 35.9265 36.1541 35.8C35.8103 35.5168 35.5257 35.1685 35.3166 34.775C35.2484 34.6551 35.2201 34.5166 35.2358 34.3795C35.2516 34.2424 35.3105 34.1139 35.4041 34.0125C35.5117 33.9169 35.6396 33.8469 35.7782 33.8079C35.9168 33.769 36.0625 33.762 36.2041 33.7875C36.6016 33.8255 36.9879 33.9401 37.3416 34.125C37.4916 34.1875 37.8916 34.5125 38.1041 34.6C38.2368 34.6617 38.3834 34.6876 38.5291 34.675C38.7348 34.6325 38.9224 34.5278 39.0666 34.375C39.2595 34.1569 39.439 33.9274 39.6041 33.6876C40.0618 33.1995 40.3357 32.5677 40.3791 31.9001C40.3413 31.242 40.0813 30.6162 39.6416 30.125C39.6041 30 39.4916 29.775 39.4166 29.5625ZM38.0666 29.8125C38.2783 30.1667 38.5209 30.5013 38.7916 30.8125C39.0612 31.1094 39.224 31.4877 39.2541 31.8875C39.2017 32.2784 39.0111 32.6376 38.7166 32.9L38.3791 33.3125C38.0673 33.009 37.6938 32.776 37.2841 32.6294C36.8743 32.4827 36.4378 32.4258 36.0041 32.4625C35.4396 32.4686 34.9003 32.6978 34.5041 33.1C34.2686 33.3312 34.0992 33.6212 34.0135 33.9399C33.9278 34.2586 33.9289 34.5944 34.0166 34.9125C34.2014 35.4993 34.5276 36.0316 34.9666 36.4625C34.8315 36.5869 34.6896 36.7038 34.5416 36.8126C34.1897 37.227 33.796 37.604 33.3666 37.9375C33.0291 38.2 32.6791 38.4626 32.3541 38.3625C31.3086 38.032 30.3455 37.4823 29.5291 36.75C28.2284 35.6206 27.0434 34.3644 25.9916 33C25.7346 32.7202 25.561 32.3741 25.4903 32.0009C25.4196 31.6276 25.4547 31.2419 25.5916 30.8875C25.7491 30.5576 25.9722 30.2633 26.2473 30.0226C26.5224 29.7819 26.8438 29.5998 27.1916 29.4875C27.802 29.9378 28.4652 30.3115 29.1666 30.6C29.5665 30.7493 30.0018 30.7754 30.4166 30.6751C30.7145 30.6167 30.9897 30.4754 31.2109 30.2676C31.432 30.0597 31.59 29.7937 31.6666 29.5C31.8509 28.7443 31.7343 27.9465 31.3416 27.275C31.2791 27.175 30.9666 26.825 30.8166 26.6625C30.9944 26.469 31.1866 26.2894 31.3916 26.125C31.9166 25.65 32.5416 25.15 32.7666 24.9625C32.826 24.9138 32.8695 24.8486 32.8916 24.775L34.4166 26.4375C34.5919 26.633 34.7798 26.8167 34.9791 26.9875C35.0537 27.0355 35.1405 27.0609 35.2291 27.0609C35.3178 27.0609 35.4046 27.0355 35.4791 26.9875C36.2916 26.525 36.3791 25.7375 36.9166 25.35C37.0768 25.26 37.2536 25.2036 37.4363 25.1842C37.619 25.1649 37.8037 25.183 37.9791 25.2375C38.0961 25.2534 38.2099 25.2871 38.3166 25.3375C38.4297 25.3816 38.5385 25.436 38.6416 25.5L39.0166 25.7875L39.3416 26.125C39.6058 26.4846 39.718 26.9335 39.6541 27.375C39.6491 27.573 39.6006 27.7675 39.5121 27.9446C39.4235 28.1218 39.297 28.2773 39.1416 28.4C38.8688 28.5241 38.5892 28.6326 38.3041 28.725C38.2033 28.7702 38.1138 28.8375 38.0424 28.9218C37.971 29.0062 37.9195 29.1056 37.8916 29.2125C37.8711 29.4206 37.9148 29.63 38.0166 29.8125H38.0666Z" fill="black"/>
</g>
<defs>
<clipPath id="clip0_115_5927">
<rect width="30" height="30" fill="white" transform="translate(10.6666 10)"/>
</clipPath>
</defs>
</svg>
