<svg width="51" height="50" viewBox="0 0 51 50" fill="none" xmlns="http://www.w3.org/2000/svg">
<rect x="0.5" width="50" height="50" rx="25" fill="#C4F5FF"/>
<g clip-path="url(#clip0_115_5934)">
<path fill-rule="evenodd" clip-rule="evenodd" d="M39.95 14.9249C39.9256 14.8611 39.8888 14.8028 39.8415 14.7534C39.7943 14.704 39.7377 14.6646 39.675 14.6374C39.5875 14.6374 39.3875 14.6374 39.3 14.5624L38.6625 14.3874L36.75 13.9124H36.625C36.7356 13.6016 36.8274 13.2843 36.9 12.9624C37.0103 12.4904 37.0772 12.0092 37.1 11.5249C37.13 11.2132 37.13 10.8992 37.1 10.5874C37.0602 10.4271 36.9782 10.2804 36.8625 10.1624C36.7608 10.075 36.6364 10.018 36.5037 9.99812C36.371 9.97822 36.2354 9.99618 36.1125 10.0499C35.7125 10.1749 34.775 10.6124 34.6875 10.6499C33.95 10.9874 33.2 11.3124 32.5 11.6874C32.0093 11.9551 31.5374 12.2558 31.0875 12.5874C30.7607 12.786 30.4513 13.0118 30.1625 13.2624C30.0134 13.3783 29.9006 13.5345 29.8375 13.7124C29.7054 14.1286 29.642 14.5634 29.65 14.9999C29.65 15.6999 29.7625 16.4749 29.825 17.1249L29.25 17.5999C28.6932 18.0963 28.1633 18.6221 27.6625 19.1749C26.5244 20.466 25.4681 21.827 24.5 23.2499C24.4381 23.3355 24.4115 23.4415 24.4254 23.5461C24.4394 23.6508 24.4929 23.7461 24.575 23.8124C24.6168 23.8446 24.6645 23.8682 24.7155 23.8819C24.7664 23.8955 24.8196 23.8989 24.8719 23.892C24.9241 23.885 24.9745 23.8678 25.0201 23.8412C25.0657 23.8147 25.1056 23.7794 25.1375 23.7374C26.2645 22.4274 27.4578 21.1758 28.7125 19.9874C29.225 19.4874 29.775 19.0249 30.325 18.5499H30.4375C30.8875 18.5499 31.3375 18.6999 31.7875 18.7999C32.2108 18.9015 32.6282 19.0267 33.0375 19.1749C33.3258 19.2928 33.6224 19.3889 33.925 19.4624C34.1672 19.4997 34.4149 19.4649 34.6375 19.3624C35.0456 19.1494 35.4274 18.8893 35.775 18.5874C36.4227 17.93 37.1207 17.324 37.8625 16.7749C38.1375 16.5874 38.75 16.3374 39.2 16.0499C39.4716 15.8984 39.7031 15.6841 39.875 15.4249C39.9257 15.3532 39.9588 15.2707 39.9718 15.1838C39.9849 15.097 39.9774 15.0084 39.95 14.9249ZM30.65 15.0999C30.7875 13.9999 31.2 14.0249 31.8 13.6499C32.223 13.3678 32.6612 13.1091 33.1125 12.8749C33.8 12.4999 34.5 12.1624 35.2125 11.8124L36.0125 11.3749C36.0157 11.4291 36.0157 11.4833 36.0125 11.5374C36.0485 11.9533 36.0485 12.3716 36.0125 12.7874C35.9609 13.1246 35.89 13.4585 35.8 13.7874C35.8 13.7874 35.8 13.7874 35.7 13.7874C34.0496 14.4115 32.4834 15.2387 31.0375 16.2499L30.6 16.5999C30.5897 16.0994 30.6064 15.5987 30.65 15.0999ZM37.225 15.6874C36.9538 15.8363 36.6983 16.0122 36.4625 16.2124C36.025 16.5624 35.625 16.9749 35.2125 17.3749C33.8 18.7874 34.075 18.3374 33.375 18.1749C32.9006 18.0663 32.4207 17.9829 31.9375 17.9249L31.0875 17.8374L31.2625 17.6874C36.175 13.5999 36.125 14.4249 38.2625 15.2499C37.8625 15.4124 37.45 15.5624 37.225 15.6874Z" fill="black"/>
<path fill-rule="evenodd" clip-rule="evenodd" d="M23.45 22.5C23.5412 22.4801 23.6207 22.4248 23.6711 22.3463C23.7215 22.2678 23.7386 22.1724 23.7187 22.0813C23.6988 21.9901 23.6436 21.9106 23.565 21.8602C23.4865 21.8098 23.3912 21.7926 23.3 21.8125C22.937 21.8911 22.5937 22.0423 22.2908 22.2572C21.9879 22.472 21.7316 22.746 21.5375 23.0625C21.3217 23.4041 21.1919 23.793 21.1592 24.1957C21.1266 24.5985 21.192 25.0031 21.35 25.375C21.5499 25.8073 21.8591 26.18 22.2472 26.4562C22.6352 26.7325 23.0886 26.9027 23.5625 26.95C24.0173 27.005 24.4787 26.9559 24.9117 26.8065C25.3448 26.657 25.7383 26.4112 26.0625 26.0875C26.1345 26.0091 26.1745 25.9065 26.1745 25.8C26.1745 25.6936 26.1345 25.591 26.0625 25.5125C25.9861 25.4414 25.8856 25.4018 25.7812 25.4018C25.6769 25.4018 25.5764 25.4414 25.5 25.5125C25.2522 25.6865 24.9701 25.8054 24.6726 25.8615C24.3751 25.9175 24.0691 25.9094 23.775 25.8375C23.5123 25.7803 23.2673 25.6607 23.0606 25.4888C22.8539 25.3169 22.6917 25.0978 22.5875 24.85C22.4799 24.6611 22.4182 24.4496 22.4073 24.2325C22.3964 24.0154 22.4368 23.7987 22.525 23.6C22.5993 23.3649 22.7192 23.1466 22.8779 22.9579C23.0366 22.7691 23.231 22.6135 23.45 22.5Z" fill="black"/>
<path fill-rule="evenodd" clip-rule="evenodd" d="M25.35 20.0875C25.3571 20.0414 25.3549 19.9945 25.3435 19.9493C25.3322 19.9041 25.312 19.8617 25.284 19.8244C25.2561 19.7872 25.221 19.7559 25.1808 19.7324C25.1406 19.7088 25.0962 19.6936 25.05 19.6875C24.5805 19.6367 24.107 19.6367 23.6375 19.6875C23.1551 19.7221 22.6798 19.823 22.225 19.9875C21.217 20.3473 20.3307 20.9836 19.6676 21.8237C19.0044 22.6637 18.5911 23.6735 18.475 24.7375C18.347 25.8474 18.6261 26.966 19.2607 27.8856C19.8952 28.8052 20.8419 29.4632 21.925 29.7375C23.2248 30.1203 24.612 30.0849 25.8906 29.6363C27.1692 29.1877 28.2744 28.3485 29.05 27.2375C29.5925 26.5996 29.9512 25.8261 30.0875 25C30.1319 24.5478 30.0802 24.0913 29.9359 23.6605C29.7916 23.2296 29.5578 22.8342 29.25 22.5C29.2181 22.458 29.1782 22.4227 29.1326 22.3962C29.087 22.3696 29.0366 22.3524 28.9844 22.3454C28.9321 22.3385 28.8789 22.3419 28.828 22.3555C28.777 22.3692 28.7293 22.3928 28.6875 22.425C28.6459 22.4557 28.6109 22.4945 28.5845 22.539C28.5582 22.5835 28.541 22.6329 28.534 22.6841C28.527 22.7354 28.5304 22.7875 28.5438 22.8375C28.5573 22.8874 28.5807 22.9342 28.6125 22.975C28.8393 23.2261 29.0127 23.5207 29.1223 23.8408C29.2319 24.161 29.2753 24.5 29.25 24.8375C29.1054 25.4959 28.7957 26.1067 28.35 26.6125C27.6501 27.4799 26.7047 28.116 25.6375 28.4375C24.589 28.775 23.461 28.775 22.4125 28.4375C21.6163 28.243 20.9166 27.7684 20.4415 27.1005C19.9664 26.4326 19.7476 25.6159 19.825 24.8C19.8633 23.9381 20.1361 23.1031 20.6141 22.385C21.0922 21.6668 21.7572 21.0929 22.5375 20.725C22.9182 20.5698 23.3173 20.4648 23.725 20.4125C24.1396 20.3541 24.5604 20.3541 24.975 20.4125C25.021 20.4159 25.0672 20.4101 25.111 20.3956C25.1547 20.3811 25.1952 20.3581 25.2301 20.3279C25.2649 20.2977 25.2934 20.2609 25.314 20.2196C25.3346 20.1784 25.3468 20.1335 25.35 20.0875Z" fill="black"/>
<path fill-rule="evenodd" clip-rule="evenodd" d="M32.175 27.6125C32.1165 27.5253 32.026 27.4646 31.923 27.4436C31.8201 27.4225 31.7131 27.4428 31.625 27.5C31.5805 27.5279 31.5421 27.5644 31.5122 27.6076C31.4822 27.6507 31.4614 27.6995 31.4508 27.7509C31.4403 27.8023 31.4404 27.8554 31.451 27.9068C31.4616 27.9582 31.4825 28.0069 31.5125 28.05C32.1783 29.126 32.7074 30.2807 33.0875 31.4875C33.3745 32.2012 33.4484 32.9828 33.3 33.7375C33.0676 34.2393 32.6826 34.6549 32.2 34.925C31.3827 35.3965 30.5147 35.7739 29.6125 36.05L25.2125 37.55C23.944 38.0915 22.6061 38.4533 21.2375 38.625C20.3787 38.7054 19.5143 38.5498 18.7375 38.175C18.6406 38.109 18.5629 38.0184 18.5125 37.9125C18.375 37.7 18.2875 37.475 18.1875 37.2875C17.9125 36.7625 17.65 36.225 17.4 35.675C17.15 35.125 16.925 34.575 16.7 34.0125C15.6 31.2625 14.3125 28.2375 13.325 25.1875C12.6687 23.216 12.2041 21.1857 11.9375 19.125C11.9328 19.0789 11.9191 19.0343 11.897 18.9936C11.875 18.9529 11.845 18.9169 11.809 18.8879C11.773 18.8588 11.7315 18.8372 11.687 18.8242C11.6426 18.8113 11.596 18.8073 11.55 18.8125C11.4583 18.825 11.3748 18.8721 11.3167 18.9441C11.2586 19.0162 11.2303 19.1077 11.2375 19.2C11.4632 21.317 11.8816 23.409 12.4875 25.45C13.375 28.55 14.55 31.7 15.5625 34.4625C15.775 35.05 16 35.625 16.2625 36.2C16.525 36.775 16.775 37.3375 17.0625 37.8875C17.2199 38.2537 17.4169 38.6017 17.65 38.925C17.8058 39.1191 18.002 39.277 18.225 39.3875C19.1913 39.8598 20.2643 40.071 21.3375 40C22.8302 39.786 24.2858 39.3653 25.6625 38.75L30 37.125C30.9724 36.7905 31.9035 36.3459 32.775 35.8C33.4404 35.3998 33.958 34.7945 34.25 34.075C34.4343 33.1256 34.3343 32.1428 33.9625 31.25C33.5168 29.9693 32.9165 28.7478 32.175 27.6125Z" fill="black"/>
<path fill-rule="evenodd" clip-rule="evenodd" d="M11.6125 18.5875C11.6882 18.5408 11.744 18.4678 11.7694 18.3825C11.7947 18.2972 11.7878 18.2056 11.75 18.125C11.6912 17.9495 11.6787 17.7618 11.7137 17.58C11.7488 17.3983 11.8302 17.2286 11.95 17.0875C12.1981 16.7618 12.4979 16.4789 12.8375 16.25C12.8375 16.7 12.9625 17.1375 13.05 17.5875C13.3 18.8375 13.625 20.15 13.875 21.425C14.1 22.4875 14.325 23.5625 14.6 24.6375C15.025 26.25 15.5 27.85 16.0625 29.4C16.9456 31.8755 18.011 34.2821 19.25 36.6C19.1585 36.607 19.0665 36.607 18.975 36.6C18.881 36.6096 18.7945 36.6554 18.7338 36.7278C18.6731 36.8001 18.643 36.8933 18.65 36.9875C18.6532 37.0336 18.6654 37.0785 18.686 37.1197C18.7066 37.161 18.7351 37.1978 18.7699 37.228C18.8048 37.2582 18.8453 37.2812 18.889 37.2957C18.9328 37.3102 18.979 37.316 19.025 37.3125C20.531 37.2773 22.0263 37.0505 23.475 36.6375C24.05 36.475 24.6125 36.3 25.175 36.1C26 35.8 26.8125 35.45 27.675 35.125C28.725 34.65 29.775 34.2 30.8 33.7125C31.5 33.375 32.175 33.0375 32.85 32.65C32.9403 32.5997 33.0076 32.5162 33.0378 32.4173C33.0679 32.3183 33.0585 32.2115 33.0116 32.1194C32.9647 32.0272 32.8839 31.9567 32.7862 31.9228C32.6885 31.8889 32.5814 31.8942 32.4875 31.9375C31.8 32.25 31.1125 32.525 30.4125 32.7875C29.35 33.175 28.275 33.5375 27.1875 33.9L24.3125 35C23.375 35.3625 22.45 35.75 21.4875 36.0375C21.0375 36.175 20.575 36.3 20.1 36.4C19.2293 34.4698 18.4574 32.4964 17.7875 30.4875C17.2625 29 16.75 27.5 16.3375 25.8875C15.925 24.275 15.3875 22.75 14.975 21.25C14.625 20 14.25 18.75 13.85 17.5C13.7125 16.975 13.5875 16.45 13.4875 15.925C13.825 15.725 14.1875 15.5375 14.5875 15.3375L15.075 15.1375L15.925 16.25C16.025 16.3875 16.125 16.5875 16.225 16.75C16.3045 16.8609 16.4016 16.958 16.5125 17.0375C16.6797 17.1669 16.8892 17.2293 17.1 17.2125C17.4945 17.1957 17.8873 17.1498 18.275 17.075C18.6641 17.0272 19.0487 16.9478 19.425 16.8375C20.225 16.5875 21 16.25 21.8125 16.0625C22.1738 15.9897 22.529 15.8895 22.875 15.7625C23.0762 15.6919 23.2508 15.561 23.375 15.3875C23.4718 15.2098 23.5314 15.0141 23.55 14.8125C23.55 14.5125 23.55 14.1375 23.6125 13.9125C23.6634 13.5455 23.7386 13.1822 23.8375 12.825C23.8375 12.65 23.9375 12.5 23.9875 12.325L25.2375 12.1C25.55 12.1 25.8 12.375 26.0375 12.7125C26.4625 13.3509 26.8068 14.0395 27.0625 14.7625C27.0941 14.8636 27.1645 14.9479 27.2583 14.9971C27.352 15.0463 27.4614 15.0564 27.5625 15.025C27.6616 14.9907 27.744 14.9199 27.7927 14.827C27.8415 14.7341 27.853 14.6261 27.825 14.525C27.553 13.561 27.1312 12.6457 26.575 11.8125C26.4186 11.578 26.2067 11.3856 25.9581 11.2526C25.7095 11.1196 25.4319 11.05 25.15 11.05C24.7 11.05 24.2125 11.15 23.725 11.225H23.625C22.221 11.4263 20.8308 11.7143 19.4625 12.0875C18.3435 12.401 17.2454 12.7851 16.175 13.2375C15.4555 13.5472 14.7544 13.8978 14.075 14.2875C11.8125 15.6 10.5 17.1125 11.15 18.4C11.1884 18.4846 11.2578 18.5512 11.3438 18.5861C11.4299 18.6209 11.5261 18.6215 11.6125 18.5875ZM16.6125 14.45C17.6125 14.075 18.7 13.725 19.7875 13.4C20.875 13.075 21.9125 12.8 22.925 12.5625C22.7875 12.9375 22.6625 13.325 22.5625 13.7125C22.375 14.5625 22.5625 14.5375 21.475 14.8L18.0375 15.8C16.875 16.1125 17.125 16.1125 16.625 15.6125L15.85 14.75L16.6125 14.45Z" fill="black"/>
</g>
<defs>
<clipPath id="clip0_115_5934">
<rect width="30" height="30" fill="white" transform="translate(10.5 10)"/>
</clipPath>
</defs>
</svg>
