<svg width="50" height="50" viewBox="0 0 50 50" fill="none" xmlns="http://www.w3.org/2000/svg">
<rect width="50" height="50" rx="25" fill="#FFEA98"/>
<g clip-path="url(#clip0_115_5915)">
<path fill-rule="evenodd" clip-rule="evenodd" d="M37.8375 25.85L37.525 25.1C37.4678 24.9724 37.3716 24.8662 37.2504 24.7966C37.1292 24.727 36.989 24.6976 36.85 24.7125C36.45 24.775 36.0375 24.925 35.6 24.9625C35.5032 24.9649 35.4075 24.9405 35.3237 24.892C35.2399 24.8434 35.1711 24.7727 35.125 24.6875C35.0767 24.6038 35.0513 24.509 35.0513 24.4125C35.0513 24.3159 35.0767 24.2211 35.125 24.1375C35.2898 23.8324 35.5054 23.5576 35.7625 23.325C35.8625 23.225 36.15 22.9875 36.3125 22.8C36.4602 22.6432 36.5486 22.4399 36.5625 22.225C36.5748 22.0722 36.5534 21.9186 36.5 21.775C36.5 21.6125 36.2875 21.3875 36.2625 21.2875L35.525 19.775C35.4019 19.5334 35.2641 19.2997 35.1125 19.075C34.9898 18.9106 34.8125 18.7954 34.6125 18.75C34.4519 18.7147 34.2856 18.7147 34.125 18.75C33.975 18.75 33.75 18.9375 33.6625 18.975L32.5 19.525C32.3875 19.4 32.275 19.3 32.25 19.275C31.9752 18.9822 31.6314 18.763 31.25 18.6375C30.879 18.5186 30.487 18.4802 30.1 18.525C29.4365 18.5973 28.827 18.9245 28.4 19.4375C28.1873 19.6851 28.0277 19.9737 27.9309 20.2854C27.8342 20.5972 27.8024 20.9254 27.8375 21.25C27.8657 21.4291 27.9117 21.605 27.975 21.775C28.003 21.8563 28.0364 21.9356 28.075 22.0125L27.6 22.2125L26.85 22.575C26.2 23.1375 26.475 23.7375 27.175 23.4625L27.9625 23.15C28.1875 23.075 28.4875 23.025 28.75 22.9375C28.9038 22.8843 29.0507 22.813 29.1875 22.725C29.2931 22.6322 29.365 22.5071 29.3921 22.3692C29.4192 22.2313 29.4 22.0883 29.3375 21.9625C29.3375 21.8875 29.2 21.7 29.2 21.6875L29.05 21.1375C29.0477 20.8234 29.1637 20.5199 29.375 20.2875C29.6097 20.0926 29.9076 19.9904 30.2125 20C30.3927 19.9951 30.5718 20.0292 30.7375 20.1C30.8829 20.16 31.0115 20.2544 31.1125 20.375C31.1125 20.375 31.375 20.825 31.475 20.975C31.5518 21.1035 31.6595 21.2108 31.7883 21.2872C31.9171 21.3636 32.0629 21.4066 32.2125 21.4125C32.3635 21.3868 32.5079 21.3316 32.6375 21.25L33.0375 21.0125L34.15 20.575L34.8375 21.925L34.9 22.1125L34.6875 22.2625C34.2368 22.7362 33.9141 23.317 33.75 23.95C33.6922 24.2179 33.6959 24.4955 33.7608 24.7618C33.8258 25.0281 33.9503 25.2762 34.125 25.4875C34.2744 25.7049 34.4714 25.8854 34.701 26.0153C34.9306 26.1453 35.1867 26.2212 35.45 26.2375C35.8466 26.2209 36.2384 26.1451 36.6125 26.0125C36.7125 26.1625 36.85 26.3125 36.85 26.325C37.1 26.8125 37.3875 27.3 37.6375 27.7875C37.7 27.925 37.75 28.075 37.8125 28.2125C37.575 28.325 37.35 28.45 37.1 28.55C36.5875 28.7625 36.05 28.8875 35.525 29.0625C35 29.2375 34.45 29.4875 33.9375 29.7L32.0375 30.8625L30.7875 31.475C30.6516 31.5363 30.5456 31.6491 30.4928 31.7886C30.4401 31.9281 30.4449 32.0828 30.5063 32.2187C30.5676 32.3546 30.6804 32.4606 30.8199 32.5134C30.9594 32.5661 31.1141 32.5613 31.25 32.5C32.3783 32.1622 33.4811 31.7445 34.55 31.25C34.9125 31.1 35.2875 30.9625 35.65 30.7875C36.0125 30.6125 36.4 30.4125 36.75 30.2125C37.1213 29.9726 37.4801 29.7139 37.825 29.4375L37.75 30.825C37.75 31.675 37.75 31.9125 36.6875 32.6625C35.9122 33.1327 35.1063 33.5503 34.275 33.9125C33.575 34.2875 32.825 34.6125 32.0875 34.925C31.7 35.1 31.2875 35.2625 30.8375 35.425C30.8375 35.1125 30.95 33.8125 30.3875 33.8125C29.825 33.8125 29.4125 34.125 29.575 35.1625C29.6375 35.575 29.7 35.4375 29.8375 35.8375L26.7125 37.0875C25.5625 37.575 24.5 38.1625 23.3625 38.625C22.8993 38.8168 22.4231 38.9756 21.9375 39.1C21.8132 39.1281 21.7051 39.2045 21.6372 39.3124C21.5692 39.4202 21.5468 39.5506 21.575 39.675C21.6032 39.7993 21.6796 39.9073 21.7874 39.9753C21.8953 40.0433 22.0257 40.0656 22.15 40.0375C22.694 39.923 23.2288 39.7684 23.75 39.575C24.925 39.2 26.0375 38.7 27.2 38.325C28.775 37.775 30.3875 37.3 31.925 36.6875C32.9819 36.2604 34.0091 35.7634 35 35.2C35.8735 34.7415 36.7094 34.2149 37.5 33.625C38.0411 33.1763 38.4693 32.6069 38.75 31.9625C38.8198 31.8319 38.8542 31.6854 38.85 31.5375C38.85 31.2625 38.725 30.875 38.7125 30.6875C38.625 26.8875 39.675 30.0875 37.8375 25.85Z" fill="black"/>
<path fill-rule="evenodd" clip-rule="evenodd" d="M20.5375 38.9749C19.8378 38.6668 19.249 38.1521 18.85 37.4999C18.2013 36.383 17.6412 35.2169 17.175 34.0124C16.875 33.3624 16.6 32.6999 16.325 32.0374C15.875 31.0374 14.475 27.4999 14.4375 27.3874C14.0875 26.5249 13.675 25.6749 13.3375 24.8124C13.2 24.4624 13.0625 24.1124 12.9375 23.7499C12.8125 23.3874 12.625 22.7249 12.5 22.1999C12.4081 21.8875 12.333 21.5704 12.275 21.2499C12.1991 20.9743 12.1973 20.6836 12.2698 20.407C12.3422 20.1305 12.4863 19.878 12.6875 19.6749C12.9125 19.3624 13.1625 19.0749 13.4125 18.7874C13.5306 19.8172 13.7059 20.8396 13.9375 21.8499C14.1875 22.9624 14.6 23.8249 14.9375 24.9499C15.0625 25.3499 15.1 25.5499 15.325 26.1374C15.4113 26.2619 15.5363 26.3544 15.6806 26.4005C15.8249 26.4467 15.9803 26.4438 16.1228 26.3925C16.2654 26.3412 16.3869 26.2443 16.4687 26.1168C16.5505 25.9893 16.5878 25.8383 16.575 25.6874C16.3875 25.1999 16.3375 25.0374 16.1875 24.6749C15.675 23.4249 15.2 22.1749 14.8125 20.9249C14.5875 19.9999 14.3625 19.1374 14.1875 18.2499C14.1875 18.2499 14.1875 18.1749 14.1125 18.1249C15.625 17.5749 17.125 16.8749 18.65 16.3374C19.323 16.084 20.012 15.8752 20.7125 15.7124C21.1732 15.4872 21.6546 15.3072 22.15 15.1749C22.275 15.4124 22.4625 15.7499 22.6125 16.0999C22.7555 16.397 22.8565 16.7125 22.9125 17.0374C22.9125 17.0374 22.9125 17.1874 22.9125 17.0374C22.8289 17.1823 22.7282 17.3166 22.6125 17.4374C22.3263 17.7398 22.09 18.0858 21.9125 18.4624C21.816 18.6788 21.7661 18.913 21.7661 19.1499C21.7661 19.3868 21.816 19.6211 21.9125 19.8374C22.0855 20.3356 22.4032 20.7708 22.825 21.0874C23.2741 21.407 23.8308 21.5372 24.375 21.4499H24.6125C24.6053 21.4913 24.6053 21.5336 24.6125 21.5749L25.025 22.6124C25.4 23.2624 26.1 22.6749 25.9875 22.1499L25.675 21.1749C25.598 20.9034 25.5062 20.6364 25.4 20.3749C25.3559 20.2747 25.2867 20.1876 25.1991 20.1219C25.1115 20.0563 25.0085 20.0142 24.9 19.9999C24.7807 19.9726 24.6568 19.9726 24.5375 19.9999C24.4375 19.9999 24.075 20.0874 24.0875 20.2124C23.9146 20.193 23.7524 20.1185 23.625 19.9999C23.4493 19.8364 23.32 19.6295 23.25 19.3999C23.2275 19.3509 23.2159 19.2976 23.2159 19.2437C23.2159 19.1897 23.2275 19.1364 23.25 19.0874C23.435 18.8154 23.6534 18.5676 23.9 18.3499C24.1732 18.0609 24.3708 17.7088 24.475 17.3249C24.5206 16.8991 24.456 16.4687 24.2875 16.0749C24.0437 15.4205 23.7425 14.7888 23.3875 14.1874C23.2832 14.0265 23.1342 13.8994 22.9589 13.8217C22.7835 13.744 22.5893 13.7191 22.4 13.7499C21.6861 13.8831 20.9807 14.0584 20.2875 14.2749C19.5508 14.5146 18.8322 14.807 18.1375 15.1499C16.55 15.8624 15 16.7624 13.4625 17.4999L13.1875 17.6874C12.775 18.1124 12.325 18.5499 11.9375 19.0249C11.6543 19.3573 11.3992 19.7127 11.175 20.0874C11.1152 20.2171 11.0812 20.3572 11.075 20.4999C11.075 20.7749 11.1375 21.1749 11.1375 21.3374C11.1375 21.7249 11.2125 22.0999 11.2875 22.4874C11.3625 22.8749 11.4875 23.5749 11.6 24.1249C11.7262 24.6768 11.8891 25.2197 12.0875 25.7499C12.3625 26.4999 12.675 27.2499 12.9625 27.9999C13.5 29.3624 14.025 30.7249 14.6125 32.0624C15.025 32.9624 15.475 33.8499 15.95 34.7124C16.5197 35.9398 17.1886 37.1187 17.95 38.2374C18.5346 39.0457 19.3625 39.6458 20.3125 39.9499C20.4019 39.9745 20.4967 39.9709 20.5839 39.9396C20.6712 39.9083 20.7467 39.8508 20.8 39.7749C20.8707 39.8453 20.9633 39.8894 21.0625 39.8999C21.1253 39.905 21.1884 39.8973 21.2481 39.8771C21.3078 39.857 21.3627 39.8249 21.4095 39.7827C21.4563 39.7406 21.4941 39.6893 21.5204 39.6321C21.5467 39.5749 21.561 39.5129 21.5625 39.4499C21.7028 38.8874 21.7989 38.3149 21.85 37.7374C21.5125 37.0874 21.15 36.8749 20.6 37.3499C20.4715 37.8821 20.4503 38.4345 20.5375 38.9749Z" fill="black"/>
<path fill-rule="evenodd" clip-rule="evenodd" d="M24.5125 12.1874L24.8625 12.6374C24.9875 12.7749 25.1125 12.9124 25.25 13.0374C26.5 14.2874 26.5 14.2874 26.825 14.1749C27.3875 13.8999 26.575 12.2749 26.475 12.0999C26.3635 11.8984 26.2247 11.7134 26.0625 11.5499C25.9138 11.3811 25.746 11.2301 25.5625 11.0999C23.925 9.8499 23.6375 10.2749 23.525 10.4499C23.4125 10.6249 23.475 10.8999 24.5125 12.1874Z" fill="black"/>
<path fill-rule="evenodd" clip-rule="evenodd" d="M29.4125 13.7499C29.55 13.7499 29.8125 13.8874 30.4625 12.4999C30.5289 12.369 30.5793 12.2305 30.6125 12.0874C30.6125 11.9499 30.6125 11.8124 30.6875 11.6749C30.8125 10.3499 30.8625 10.1749 30.525 10.0249C30.3875 10.0249 29.9875 9.74994 29.275 11.2749C29.1964 11.4163 29.1376 11.5677 29.1 11.7249C29.0528 11.8751 29.0235 12.0304 29.0125 12.1874C29.0125 12.1874 28.95 13.7499 29.4125 13.7499Z" fill="black"/>
<path fill-rule="evenodd" clip-rule="evenodd" d="M34.0375 14.9999C34.225 14.9124 34.4 14.8124 34.575 14.7124L35.1125 14.3749C36.575 13.4124 36.8625 13.3499 36.7 12.8999C36.625 12.7124 36.5125 12.3124 34.45 12.9999C34.2174 13.0817 33.9916 13.182 33.775 13.2999C33.5584 13.4228 33.3534 13.565 33.1625 13.7249C32.8625 13.9999 31.65 15.2749 32.1 15.6999C32.55 16.1249 32.3875 15.8624 34.0375 14.9999Z" fill="black"/>
<path fill-rule="evenodd" clip-rule="evenodd" d="M30 31.5499L29.2875 29.6999C29.5 29.5749 29.7375 29.4749 29.75 29.4624C30.1747 29.1065 30.5053 28.6514 30.7125 28.1374C30.8685 27.74 30.9075 27.3063 30.825 26.8874C30.7808 26.6335 30.6847 26.3915 30.5427 26.1765C30.4008 25.9614 30.216 25.7779 30 25.6374C29.4481 25.2813 28.7902 25.1268 28.1375 25.1999L27.4125 25.3499L27.25 25.1499L26.4625 23.7499C26.4625 23.7499 26.2375 23.0374 26.025 22.9749C25.425 22.7999 24.2875 23.8624 23.8125 24.1499C23.6275 24.2622 23.4354 24.3625 23.2375 24.4499C23.125 24.4499 22.6125 24.6374 22.4125 24.7374C22.2703 24.8194 22.1601 24.9472 22.1 25.0999C22.0787 25.2114 22.0787 25.3259 22.1 25.4374C22.1 25.6249 22.2625 25.9999 22.2625 26.1499C22.282 26.4667 22.2264 26.7837 22.1 27.0749C22.004 27.3119 21.8268 27.5069 21.6 27.6249C21.5236 27.6676 21.4375 27.69 21.35 27.69C21.2625 27.69 21.1764 27.6676 21.1 27.6249C20.827 27.4713 20.5853 27.2678 20.3875 27.0249C20.1945 26.7861 19.9857 26.5606 19.7625 26.3499C19.558 26.1906 19.309 26.0989 19.05 26.0874C18.8724 26.0978 18.6964 26.1271 18.525 26.1749C18.075 26.2749 17.6125 26.5124 17.1875 26.5624H17.025C16.625 26.3999 15.55 27.1249 15.7 27.5499C15.7 27.6374 16.95 30.5249 17.3875 31.5499C17.7125 32.3624 18.0375 33.1624 18.3875 33.9499C18.6254 34.5552 18.9271 35.1335 19.2875 35.6749C19.5119 35.9514 19.7775 36.1917 20.075 36.3874C20.5649 36.6511 21.1073 36.8025 21.6629 36.8306C22.2186 36.8587 22.7735 36.7628 23.2875 36.5499C24.143 36.3154 24.9788 36.0145 25.7875 35.6499C26.563 35.2732 27.3183 34.8559 28.05 34.3999C28.3625 34.2124 28.95 33.9749 29.4 33.6874C29.4 33.7874 30.2625 33.1749 30.3375 32.8749C30.366 32.4088 30.248 31.9455 30 31.5499ZM28.8375 28.3999C28.8375 28.3999 28.275 28.7749 28.0875 28.9249C27.958 29.0175 27.859 29.1467 27.8034 29.2959C27.7477 29.4451 27.7378 29.6076 27.775 29.7624L28.5 31.9999L28.625 32.2249L28.375 32.3624C27.95 32.5999 27.425 32.8124 27.125 32.9749C26.4375 33.3874 25.7375 33.7749 25 34.1249C24.285 34.4672 23.5455 34.7555 22.7875 34.9874C22.4196 35.1132 22.0375 35.193 21.65 35.2249C21.3164 35.2548 20.9808 35.1989 20.675 35.0624C20.4715 34.9535 20.2994 34.7943 20.175 34.5999C19.9026 34.2018 19.6603 33.784 19.45 33.3499C18.95 32.4124 18.4875 31.4624 18.0375 30.4999C17.5875 29.5374 17.35 28.9499 17.0125 28.1624H17.275C19.575 27.5624 18.725 27.6999 19.1875 28.1624C19.6019 28.6207 20.127 28.965 20.7125 29.1624C20.9581 29.2404 21.2173 29.2662 21.4734 29.2383C21.7296 29.2103 21.977 29.1291 22.2 28.9999C22.6164 28.7664 22.9487 28.4078 23.15 27.9749C23.4257 27.4043 23.5299 26.766 23.45 26.1374C23.419 26.0228 23.3635 25.9162 23.2875 25.8249C23.4625 25.7374 23.65 25.5874 23.7 25.5624C23.9321 25.4369 24.1574 25.2992 24.375 25.1499C24.7625 24.8749 25.1375 24.5624 25.5375 24.2874L26.2875 25.7749C26.3589 25.9897 26.4554 26.1953 26.575 26.3874C26.6721 26.5098 26.8094 26.5939 26.9625 26.6249C27.1324 26.6501 27.3051 26.6501 27.475 26.6249C27.725 26.6249 28.0125 26.4999 28.2375 26.4874C28.5462 26.4696 28.8537 26.5389 29.125 26.6874C29.2287 26.7351 29.32 26.8062 29.3916 26.8951C29.4631 26.984 29.5131 27.0884 29.5375 27.1999C29.5651 27.4258 29.5167 27.6545 29.4 27.8499C29.2465 28.0608 29.0609 28.2464 28.85 28.3999H28.8375Z" fill="black"/>
</g>
<defs>
<clipPath id="clip0_115_5915">
<rect width="30" height="30" fill="white" transform="translate(10 10)"/>
</clipPath>
</defs>
</svg>
