<svg width="22" height="22" viewBox="0 0 22 22" fill="none" xmlns="http://www.w3.org/2000/svg">
<path d="M11 20.1666C5.93723 20.1666 1.83331 16.0627 1.83331 11C1.83331 5.93723 5.93723 1.83331 11 1.83331C16.0627 1.83331 20.1666 5.93723 20.1666 11C20.1666 16.0627 16.0627 20.1666 11 20.1666ZM11 18.3333C12.9449 18.3333 14.8102 17.5607 16.1854 16.1854C17.5607 14.8102 18.3333 12.9449 18.3333 11C18.3333 9.05506 17.5607 7.1898 16.1854 5.81453C14.8102 4.43926 12.9449 3.66665 11 3.66665C9.05506 3.66665 7.1898 4.43926 5.81453 5.81453C4.43926 7.1898 3.66665 9.05506 3.66665 11C3.66665 12.9449 4.43926 14.8102 5.81453 16.1854C7.1898 17.5607 9.05506 18.3333 11 18.3333ZM10.0833 6.41665H11.9166V8.24998H10.0833V6.41665ZM10.0833 10.0833H11.9166V15.5833H10.0833V10.0833Z" fill="black"/>
</svg>
