<svg width="22" height="22" viewBox="0 0 22 22" fill="none" xmlns="http://www.w3.org/2000/svg">
<path d="M5.85017 5.47069C7.3111 4.30016 9.12799 3.6637 11 3.66669C12.9479 3.66669 14.7382 4.34135 16.1498 5.47069L17.4818 4.13877L18.7779 5.43494L17.446 6.76685C18.4156 7.98066 19.0227 9.44355 19.1976 10.9872C19.3724 12.5308 19.1079 14.0924 18.4344 15.4924C17.7609 16.8923 16.7059 18.0736 15.3907 18.9004C14.0754 19.7272 12.5535 20.1658 11 20.1658C9.4465 20.1658 7.92457 19.7272 6.60935 18.9004C5.29412 18.0736 4.23906 16.8923 3.56558 15.4924C2.8921 14.0924 2.62757 12.5308 2.80243 10.9872C2.9773 9.44355 3.58444 7.98066 4.554 6.76685L3.22209 5.43585L4.51825 4.13969L5.85017 5.4716V5.47069ZM11.9167 11V6.87044L7.33334 12.8334H10.0833V16.9584L14.6667 11H11.9167ZM7.33334 0.916687H14.6667V2.75002H7.33334V0.916687Z" fill="black"/>
</svg>
