<svg width="22" height="20" viewBox="0 0 22 20" fill="none" xmlns="http://www.w3.org/2000/svg">
<path fill-rule="evenodd" clip-rule="evenodd" d="M21.9175 1.36504C21.8681 1.21677 21.7752 1.08679 21.651 0.991979C21.5267 0.897167 21.3769 0.841905 21.2208 0.833374C20.9078 0.85573 20.614 0.992822 20.3958 1.21837C19.2709 2.35709 18.2379 3.58315 17.3066 4.88504C15.015 7.92837 12.2466 11.98 11.0091 13.85L10.56 14.5375C9.31019 14.0839 8.01212 13.7763 6.69164 13.6209C6.08245 13.5185 5.45885 13.5403 4.85831 13.685C4.77762 13.7173 4.70432 13.7656 4.64287 13.8271C4.58141 13.8885 4.53308 13.9618 4.50081 14.0425C4.47072 14.2233 4.48144 14.4085 4.5322 14.5845C4.58295 14.7606 4.67245 14.9231 4.79414 15.06C5.42202 15.8296 6.13898 16.5219 6.92998 17.1225C8.67164 18.525 10.8716 19.8725 11.66 19.9734C11.7009 19.9785 11.7425 19.9754 11.7823 19.9643C11.8221 19.9532 11.8592 19.9343 11.8917 19.9087C11.9241 19.8831 11.9511 19.8514 11.9711 19.8153C11.9911 19.7791 12.0038 19.7394 12.0083 19.6984C12.016 19.6147 11.9906 19.5313 11.9374 19.4661C11.8843 19.401 11.8077 19.3593 11.7241 19.35C10.3781 18.8295 9.1363 18.0719 8.05747 17.1134C7.1156 16.4137 6.25744 15.6078 5.49998 14.7117C5.42946 14.6182 5.36516 14.5203 5.30748 14.4184C5.37846 14.3935 5.45244 14.378 5.52748 14.3725C6.45724 14.4075 7.37993 14.549 8.27747 14.7942C9.03963 14.9678 9.7827 15.2166 10.4958 15.5367C10.5734 15.5832 10.6635 15.6046 10.7537 15.598C10.8439 15.5914 10.9299 15.5572 11 15.5C11.0787 15.4539 11.14 15.383 11.1741 15.2984V15.2525C11.275 15.0967 11.4766 14.785 11.7791 14.3359C13.035 12.5025 15.8308 8.50587 18.1225 5.49004C19.1491 4.13337 20.0658 2.96921 20.7075 2.30004C20.7902 2.21352 20.8825 2.13664 20.9825 2.07087C20.9366 2.32754 20.8266 2.66671 20.7441 2.98754C19.9618 5.45214 18.9745 7.84689 17.7925 10.1467C16.4005 13.0848 14.7983 15.9185 12.9983 18.6259C12.9766 18.6548 12.9609 18.6876 12.9519 18.7226C12.9429 18.7576 12.941 18.794 12.9461 18.8298C12.9512 18.8655 12.9633 18.8999 12.9817 18.931C13.0001 18.9621 13.0244 18.9892 13.0533 19.0109C13.1131 19.0551 13.1879 19.0742 13.2616 19.0639C13.3353 19.0536 13.4021 19.0148 13.4475 18.9559C16.4501 14.6257 19.0083 10.0037 21.0833 5.16004C21.4824 4.27723 21.7895 3.35572 22 2.41004C22.0642 2.06048 22.0358 1.70019 21.9175 1.36504Z" fill="#34D26E"/>
<path fill-rule="evenodd" clip-rule="evenodd" d="M8.35081 11.8975C9.50581 10.3117 11.1008 8.23088 12.595 6.30588L14.4283 3.92254C15.345 2.79504 16.0416 1.84171 16.555 1.29171C16.6466 1.20004 16.7291 1.09004 16.8025 1.00754C16.8112 1.05297 16.8112 1.09962 16.8025 1.14504C16.7795 1.54248 16.7118 1.93607 16.6008 2.31838C16.5 2.88671 16.2708 3.58338 15.9958 4.31671C15.9735 4.35143 15.9593 4.39072 15.9542 4.43167C15.9492 4.47263 15.9534 4.51419 15.9666 4.55329C15.9798 4.59239 16.0016 4.62802 16.0305 4.65753C16.0593 4.68705 16.0944 4.7097 16.1332 4.7238C16.172 4.7379 16.2134 4.7431 16.2545 4.739C16.2956 4.7349 16.3352 4.72161 16.3704 4.70012C16.4056 4.67863 16.4356 4.64949 16.458 4.61485C16.4804 4.58022 16.4948 4.54098 16.5 4.50004C17.0151 3.45266 17.394 2.34365 17.6275 1.20004C17.7008 0.448377 17.38 0.0908773 16.9583 0.0450439C16.6989 0.0499817 16.4505 0.151275 16.2616 0.329211C15.2784 1.21986 14.3821 2.20206 13.585 3.26254C13.0075 3.99588 12.3841 4.83004 11.7516 5.69171C10.3125 7.69004 8.88248 9.89004 7.80998 11.54C7.77784 11.6089 7.77122 11.687 7.79129 11.7604C7.81136 11.8337 7.85682 11.8975 7.91957 11.9405C7.98232 11.9834 8.05828 12.0026 8.1339 11.9948C8.20953 11.9869 8.2799 11.9525 8.33248 11.8975H8.35081Z" fill="#34D26E"/>
<path fill-rule="evenodd" clip-rule="evenodd" d="M6.10498 19.1667C5.59164 19.0659 4.63831 17.9751 3.66664 16.7284C3.27248 16.2334 2.88748 15.6926 2.52081 15.1884C2.15414 14.6842 1.75081 14.0792 1.46664 13.6026C1.27116 13.3129 1.10241 13.0061 0.962478 12.6859C0.962478 12.6859 0.962478 12.6859 0.962478 12.6401C1.79331 12.6257 2.62155 12.737 3.41914 12.9701C3.45345 12.9827 3.48991 12.9885 3.52645 12.987C3.56298 12.9856 3.59887 12.9769 3.63207 12.9616C3.66526 12.9463 3.69512 12.9246 3.71992 12.8977C3.74473 12.8709 3.764 12.8394 3.77664 12.8051C3.78928 12.7708 3.79504 12.7343 3.79359 12.6978C3.79214 12.6612 3.78351 12.6253 3.76818 12.5921C3.75286 12.5589 3.73115 12.5291 3.70429 12.5043C3.67743 12.4795 3.64595 12.4602 3.61164 12.4476C2.79934 12.1213 1.94408 11.9145 1.07248 11.8334C0.805433 11.7933 0.532507 11.8282 0.284144 11.9342C0.18656 11.9873 0.109223 12.0711 0.0641443 12.1726C0.00471319 12.4206 -0.00482197 12.678 0.0360929 12.9298C0.0770079 13.1816 0.167557 13.4227 0.302478 13.6392C0.696377 14.4469 1.17251 15.2118 1.72331 15.9217C3.17164 17.8376 5.18831 19.7259 5.99498 19.8451C6.03532 19.853 6.07684 19.853 6.11715 19.8448C6.15745 19.8367 6.19575 19.8207 6.22984 19.7976C6.26392 19.7746 6.29311 19.7451 6.31574 19.7108C6.33836 19.6764 6.35396 19.638 6.36164 19.5976C6.38053 19.5526 6.3886 19.5038 6.3852 19.4551C6.38179 19.4065 6.36701 19.3593 6.34204 19.3174C6.31708 19.2755 6.28262 19.24 6.24144 19.2138C6.20027 19.1877 6.15352 19.1715 6.10498 19.1667Z" fill="#34D26E"/>
</svg>
